<?xml version="1.0" encoding="UTF-8"?><svg xmlns="http://www.w3.org/2000/svg" xmlns:xlink="http://www.w3.org/1999/xlink" viewBox="0 0 1000 500"><defs><style>.cls-1,.cls-2{fill:#f283cf;font-family:Inconsolata-Black, Inconsolata;font-variation-settings:'wght' 900, 'wdth' 100;font-weight:800;}.cls-3,.cls-4,.cls-5,.cls-6,.cls-7{fill:#fff;}.cls-3,.cls-8,.cls-9{font-family:Bahnschrift, Bahnschrift;font-variation-settings:'wght' 400, 'wdth' 100;}.cls-10{fill:#383f46;}.cls-11{stroke-miterlimit:10;}.cls-11,.cls-12{stroke:#15ff79;}.cls-11,.cls-12,.cls-13{fill:none;}.cls-5,.cls-14{letter-spacing:-.01em;}.cls-6{font-family:Inconsolata-SemiBold, Inconsolata;font-variation-settings:'wght' 600, 'wdth' 100;font-weight:600;}.cls-15{fill:#ff7fdc;}.cls-16{font-size:36px;}.cls-17,.cls-18,.cls-19,.cls-9{fill:#15ff79;}.cls-17,.cls-7,.cls-20{letter-spacing:0em;}.cls-18{letter-spacing:0em;}.cls-12{stroke-linecap:round;stroke-linejoin:round;stroke-width:5px;}.cls-2,.cls-21{font-size:65px;}.cls-22{clip-path:url(#clippath);}.cls-14,.cls-20,.cls-23{fill:#f2f2f2;}</style><clipPath id="clippath"><rect class="cls-13" x="68.48" y="25.37" width="144" height="224" transform="translate(107.23 -56.28) rotate(35.9)"/></clipPath></defs><g id="Layer_1"><rect class="cls-10" width="1000" height="500"/></g><g id="Layer_2"><text class="cls-21" transform="translate(373.16 216.84)"><tspan class="cls-6" x="0" y="0">task-pdf-writer-</tspan><tspan class="cls-1" x="520" y="0">v2</tspan></text><text class="cls-16" transform="translate(369.52 288.16)"><tspan class="cls-8"><tspan class="cls-19" x="0" y="0">C</tspan><tspan class="cls-17" x="22.27" y="0">r</tspan><tspan class="cls-19" x="37.28" y="0">eate</tspan><tspan class="cls-23" x="106.79" y="0" xml:space="preserve"> with </tspan><tspan class="cls-20" x="194.85" y="0">y</tspan><tspan class="cls-14" x="211.89" y="0">o</tspan><tspan class="cls-23" x="231.06" y="0">ur ideas</tspan></tspan><tspan class="cls-8"><tspan class="cls-19" x="0" y="43.2">Col</tspan><tspan class="cls-18" x="52.31" y="43.2">l</tspan><tspan class="cls-19" x="62.56" y="43.2">aborate</tspan><tspan class="cls-15" x="186.49" y="43.2"> </tspan><tspan class="cls-4" x="196.15" y="43.2">with </tspan><tspan class="cls-7" x="274.55" y="43.2">y</tspan><tspan class="cls-5" x="291.59" y="43.2">o</tspan><tspan class="cls-4" x="310.76" y="43.2">ur teammates</tspan></tspan><tspan class="cls-9" x="0" y="86.4">Generate</tspan><tspan class="cls-3" x="147.55" y="86.4" xml:space="preserve"> with </tspan><tspan class="cls-6" x="235.62" y="86.4">task-pdf-writer-</tspan><tspan class="cls-1" x="523.62" y="86.4">v2</tspan></text><line class="cls-11" x1="370" y1="242" x2="962" y2="242"/><text class="cls-2" transform="translate(263.14 434.02)"><tspan x="0" y="0">v2</tspan></text></g><g id="Layer_3"><g><line class="cls-12" x1="34.48" y1="160.37" x2="110.48" y2="55.37"/><line class="cls-12" x1="110.48" y1="55.37" x2="339.48" y2="55.37"/><line class="cls-12" x1="339.48" y1="449.37" x2="339.48" y2="55.37"/><line class="cls-12" x1="34.48" y1="449.37" x2="339.48" y2="449.37"/><line class="cls-12" x1="34.48" y1="160.37" x2="34.48" y2="449.37"/><g class="cls-22"><rect class="cls-19" x="34.48" y="55.37" width="76" height="105"/></g><line class="cls-12" x1="110.22" y1="55.37" x2="110.22" y2="160.37"/><line class="cls-12" x1="34.48" y1="160.37" x2="110.22" y2="160.37"/><path class="cls-4" d="m171.77,324.58c6.11-2.1,11.6-5.62,16.16-10.19,2.04-2.04,3.9-4.24,5.97-6.25,1.82-1.78,3.83-3.42,6.13-4.14,3.67-1.15,2.1-6.94-1.6-5.79-5.78,1.81-9.63,6.59-13.66,10.82s-8.94,7.82-14.6,9.77c-1.53.53-2.54,2.06-2.1,3.69.41,1.49,2.15,2.62,3.69,2.1h0Z"/><path class="cls-4" d="m99.98,281.01c-.67.82-1.31,1.65-1.93,2.51-1.22,1.71.15,3.8,1.79,4.41,19.57,7.25,37.36-6.51,52.9-16.6,5.02-3.26,10.21-6.38,15.91-8.32,1.53-.52,2.54-2.06,2.1-3.69-.41-1.5-2.15-2.62-3.69-2.1-9.64,3.27-17.86,9.33-26.29,14.85-7.56,4.95-15.58,9.87-24.62,11.48-4.88.87-9.96.34-14.7-1.42l1.79,4.41c.32-.44.64-.87.99-1.3,1.03-1.25,1.23-3.02,0-4.24-1.06-1.06-3.21-1.26-4.24,0h0Z"/><path class="cls-4" d="m99.61,281.33c-.24.42-.43.87-.6,1.32-.12.33-.16.65-.21,1-.04.32-.09.61-.06.92.03.3.06.69.15,1.01s.26.68.37.93c.34.76.97,1.29,1.63,1.77.34.25.77.39,1.14.54.17.07.35.12.53.16.47.09.96.17,1.44.16.12,0,.25-.01.37-.02.39-.04.78-.09,1.16-.16.39-.09.73-.27,1.02-.54.33-.21.58-.49.77-.84.22-.34.34-.72.36-1.12.09-.4.07-.8-.05-1.2-.23-.73-.68-1.43-1.38-1.79l-.72-.3c-.53-.14-1.06-.14-1.6,0-.09.02-.18.03-.27.05l.8-.11c-.32.04-.64.05-.97,0l.8.11c-.23-.03-.46-.09-.68-.18l.72.3c-.16-.07-.3-.15-.44-.25l.61.47c-.12-.09-.22-.2-.32-.32l.47.61c-.08-.11-.15-.23-.21-.36l.3.72c-.05-.13-.09-.27-.11-.41l.11.8c-.02-.18-.02-.36,0-.54l-.11.8c.04-.25.11-.49.2-.73l-.3.72c.07-.17.15-.32.24-.48.22-.34.34-.72.36-1.12.09-.4.07-.8-.05-1.2-.09-.39-.27-.73-.54-1.02-.21-.33-.49-.58-.84-.77-.7-.37-1.54-.55-2.31-.3s-1.39.69-1.79,1.38h0Z"/><path class="cls-4" d="m182.7,221.08c-7.18-1.26-14.46-1.17-21.56.55-6.6,1.6-12.87,4.57-18.51,8.32-11.99,7.98-21.49,19.14-29.79,30.77-4.53,6.33-8.7,12.91-12.75,19.55-2.01,3.31,3.17,6.32,5.18,3.03,7.04-11.55,14.41-22.9,23.33-32.9,4.38-4.91,9.42-9.78,14.48-13.48s10.77-6.86,16.69-8.7c1.7-.53,3.43-.96,5.17-1.3,1.91-.37,2.94-.5,4.9-.64,3.8-.26,7.77-.04,11.26.57,1.59.28,3.23-.43,3.69-2.1.4-1.45-.49-3.41-2.1-3.69h0Z"/><path class="cls-4" d="m202.56,141.2c-3.88,17.31-8.46,34.45-13.73,51.38-5.27,16.91-11.23,33.61-17.86,50.04-3.71,9.2-7.65,18.31-11.79,27.32-.68,1.47-.42,3.23,1.08,4.1,1.29.76,3.43.4,4.1-1.08,7.49-16.32,14.33-32.95,20.47-49.83,6.11-16.8,11.53-33.86,16.25-51.1,2.65-9.69,5.07-19.45,7.26-29.25.35-1.58-.48-3.25-2.1-3.69-1.51-.41-3.33.51-3.69,2.1h0Z"/><path class="cls-4" d="m139.18,313.86c5.54,9.93,8.54,21.21,9.38,32.51.12,1.62,1.29,3,3,3,1.53,0,3.12-1.38,3-3-.92-12.38-4.13-24.66-10.2-35.54-1.88-3.37-7.07-.35-5.18,3.03h0Z"/><path class="cls-4" d="m205.09,143.37c9.23.73,19,3.77,26.07,9.79,1.23,1.05,3.03,1.21,4.24,0,1.08-1.08,1.24-3.19,0-4.24-8.44-7.18-19.4-10.68-30.32-11.55-1.62-.13-3,1.47-3,3,0,1.73,1.38,2.87,3,3h0Z"/><path class="cls-4" d="m205.34,231.36c17.83,3.47,35.65,6.93,53.48,10.4,1.59.31,3.24-.45,3.69-2.1.4-1.47-.5-3.38-2.1-3.69-17.83-3.47-35.65-6.93-53.48-10.4-1.59-.31-3.24.45-3.69,2.1-.4,1.47.5,3.38,2.1,3.69h0Z"/><path class="cls-4" d="m169.87,317.01c-7.12,9.16-14.1,18.44-20.9,27.85-.95,1.31-.23,3.34,1.08,4.1,1.51.89,3.15.24,4.1-1.08,6.5-8.99,13.15-17.87,19.96-26.63.99-1.28,1.25-3,0-4.24-1.04-1.04-3.24-1.29-4.24,0h0Z"/><path class="cls-4" d="m177.75,301.42c-1.98,2.45-3.77,5.03-5.24,7.81s-2.68,5.94-3.71,9.03c-.5,1.49.57,3.34,2.1,3.69,1.66.38,3.16-.5,3.69-2.1.49-1.48,1-2.95,1.58-4.39.13-.32.14-.33.01-.03.07-.17.14-.33.22-.5.11-.25.22-.49.34-.74.31-.65.63-1.3.96-1.94.63-1.2,1.32-2.36,2.06-3.49.39-.6.8-1.2,1.23-1.78.21-.29.43-.58.65-.87-.38.49.3-.37.37-.45.99-1.22,1.28-3.07,0-4.24-1.09-1-3.19-1.3-4.24,0h0Z"/><path class="cls-4" d="m229.68,151.33c-11.54,30.02-22.91,60.11-34.09,90.27-3.17,8.55-6.32,17.1-9.46,25.66-.56,1.52.63,3.29,2.1,3.69,1.67.46,3.13-.57,3.69-2.1,11.08-30.19,22.34-60.32,33.78-90.37,3.24-8.52,6.5-17.04,9.78-25.55.58-1.51-.64-3.29-2.1-3.69-1.69-.47-3.11.58-3.69,2.1h0Z"/><path class="cls-4" d="m128.06,279.78c-7.26,3.51-13.61,9.3-16.47,16.97-.76,2.04-1.57,4.55-.28,6.53,1.42,2.19,4.52,2.61,6.89,2.9,4.72.59,9.54-.27,14.12-1.38,5.18-1.25,10.28-2.82,15.66-2.64,3.86.13,3.86-5.87,0-6-8.48-.29-16.24,3.53-24.59,4.13-1.82.13-3.71.17-5.51-.18-.5-.1-1-.21-1.49-.35-.69-.2-.6-.44-.16.56.53,1.2.37.49.56-.23.1-.38.21-.75.34-1.12.85-2.53,2.56-5.19,4.52-7.28,2.68-2.86,5.9-5.03,9.42-6.73,1.46-.71,1.85-2.78,1.08-4.1-.87-1.49-2.64-1.78-4.1-1.08h0Z"/><path class="cls-4" d="m148.47,292.82c-1.98,2.45-3.77,5.03-5.24,7.81s-2.68,5.94-3.71,9.03c-.5,1.49.57,3.34,2.1,3.69,1.66.38,3.16-.5,3.69-2.1.49-1.48,1-2.95,1.58-4.39.13-.32.14-.33.01-.03.07-.17.14-.33.22-.5.11-.25.22-.49.34-.74.31-.65.63-1.3.96-1.94.63-1.2,1.32-2.36,2.06-3.49.39-.6.8-1.2,1.23-1.78.21-.29.43-.58.65-.87-.38.49.3-.37.37-.45.99-1.22,1.28-3.07,0-4.24-1.09-1-3.19-1.3-4.24,0h0Z"/><path class="cls-4" d="m180.59,315.75l-.88,9.35c-.26,2.8-.85,5.79-.72,8.6.15,3.13,2.2,5.63,5.29,6.27,2.8.58,5.51-.43,7.81-2,4.52-3.08,8.62-6.91,12.06-11.16s6.29-8.51,10.73-11.68c4.8-3.42,10.23-5.83,15.61-8.18,1.49-.65,1.83-2.82,1.08-4.1-.9-1.53-2.61-1.73-4.1-1.08-8.94,3.89-17.76,8.19-23.9,16.03-3.15,4.02-6.15,7.98-9.98,11.39-1.68,1.5-3.46,3-5.41,4.16-.81.48-1.55.85-2.42.79.42.03-.75-.23-.45-.09-.09-.04-.36-.32-.2-.09l-.22-.23c.07.1.11.11.1.04-.16-2.75.43-5.69.69-8.43l.9-9.59c.15-1.62-1.49-3-3-3-1.75,0-2.85,1.38-3,3h0Z"/><path class="cls-4" d="m208.81,148.43c6.02.2,11.99,1.56,17.46,4.1l-.61-4.71c-.14.16-.28.31-.44.44.18-.12.19-.13.02-.01-.11.08-.94.47-.45.28-.27.1-.56.17-.84.24-.81.18.46.03-.39.05-1.43.04-2.82-.07-4.24-.23-3.24-.36-6.28-.49-9.32.87-2.45,1.09-1.59,4.85.72,5.48,4.34,1.19,8.69,2.38,13.03,3.57v-5.79c-4.83.94-9.72,1.38-14.64,1.39-1.48,0-2.77,1.14-2.95,2.6-.16,1.36.66,3.03,2.15,3.29,3.7.64,7.4,1.28,11.09,1.93l-1.32-5.01c-1.19,1.14-2.58,2.64-4.32,2.83.18-.07.1-.09-.25-.05.25.01.2-.02-.18-.09.38.15-.49-.3-.47-.29.18.12.14.07-.13-.17.14.19.12.14-.07-.16.06-.1-.13,1.15.12.24l-5.89-.8c-1.03,11.12-2.58,22.18-4.66,33.16-.28,1.46.28,2.95,1.74,3.54,1.29.52,3.09.14,3.75-1.23,3.66-7.58,7.89-14.87,12.67-21.8.57-.82,1.14-1.63,1.72-2.44.63-.88,1.5-1.77,1.91-2.76.98-2.34-1.09-4.69-3.32-5.1-4.75-.88-6.81,4.74-8.26,8.21-2.99,7.17-4.07,14.9-5.7,22.44-.84,3.87-1.84,7.71-3.28,11.4-1.52,3.89-3.44,7.62-5.07,11.46-3.34,7.89-5.2,16.29-8.4,24.24-3.02,7.5-6.98,14.66-11.6,21.3-.86,1.23-1.7,2.46-3.07,3.18,0,0-.51.28-.22.11.01,0-.51.17-.22.09.25-.07-.18.04-.22,0,.05.05.24-.04.28.05.19.45.02-.04.02-.08,0,0,.07.14.08.17.03.12-.01-.57,0-.63.08-1.34.99-3.34,1.57-4.81.72-1.83,1.51-3.62,2.36-5.39,1.82-3.78,3.93-7.4,6.23-10.91s4.65-6.85,6.51-10.55c3.88-7.7,5.53-16.37,7.59-24.68,2.17-8.74,4.29-17.49,6.22-26.28.47-2.16.94-4.32,1.39-6.48l-5.79-1.6c-2.29,12.67-4.1,25.42-5.41,38.23-.61,6-.99,12.03-1.84,18s-2.28,11.82-4.45,17.47c-2.4,6.28-5.55,12.24-8.64,18.2-.75,1.44-.37,3.26,1.08,4.1,1.35.79,3.35.37,4.1-1.08,5.7-10.95,11.17-22.01,13.26-34.29,1.05-6.2,1.54-12.48,2.13-18.74s1.31-12.66,2.17-18.96c.97-7.14,2.1-14.25,3.38-21.34.29-1.59-.43-3.23-2.1-3.69-1.49-.41-3.36.5-3.69,2.1-1.64,7.85-3.44,15.66-5.33,23.46s-3.57,15.06-5.62,22.51c-.95,3.44-2.03,6.85-3.64,10.04s-3.65,6.22-5.64,9.23c-4.12,6.22-7.64,12.71-10.32,19.69-1.18,3.08-2.55,6.8-.43,9.8,2.47,3.51,6.79,2.7,9.74.37,2.67-2.12,4.49-5.34,6.3-8.19,1.92-3.02,3.7-6.14,5.32-9.33,3.38-6.67,5.98-13.63,8.18-20.76,1.13-3.68,2.25-7.37,3.67-10.94,1.34-3.38,2.99-6.62,4.44-9.95,1.64-3.77,2.98-7.6,3.97-11.58.92-3.74,1.62-7.54,2.39-11.31.77-3.74,1.6-7.48,2.82-11.11.54-1.62,1.16-3.21,1.91-4.75.41-.85.87-1.66,1.33-2.48.49-.86.16-.1.08-.16-.29.13-.59.15-.92.05-.46-.2-.79-.56-.99-1.08l.3-2.31c-6.22,8.35-11.63,17.26-16.15,26.64l5.48,2.31c2.17-11.5,3.8-23.1,4.87-34.75.32-3.43-5.01-3.98-5.89-.8-1.02,3.68,1.81,7.22,5.4,7.92,3.96.77,7.25-1.82,9.93-4.39,1.52-1.46.93-4.62-1.32-5.01-3.7-.64-7.4-1.28-11.09-1.93l-.8,5.89c5.45-.01,10.88-.57,16.23-1.61,2.99-.58,2.72-5.04,0-5.79-4.34-1.19-8.69-2.38-13.03-3.57l.72,5.48c-.32.14.66-.18.79-.21.1-.02.95-.13.47-.09.77-.08,1.55-.06,2.32-.01,1.47.09,2.92.31,4.39.43,3.24.27,6.59-.2,8.9-2.7,1.2-1.3,1.22-3.86-.61-4.71-6.46-3-13.35-4.69-20.48-4.92-3.86-.13-3.86,5.87,0,6h0Z"/><path class="cls-4" d="m149.75,298.84c-1.95,3.03-3.68,6.19-5.17,9.48-1.24,2.74-4.35,7.95-1.16,10.47,1.18.93,2.28,1.06,3.64.47,3.71-1.62,5.65-5.83,7.49-9.17.98-1.78,1.93-3.58,2.83-5.41.49-.98.96-1.97,1.43-2.96.12-.25.54-.83.56-1.1,0-.02,0-.03-.04-.03-.56.34-1.15.11-1.77-.68-.15-.77-.21-.88-.18-.34l.02-.14c-.19.43-.28.98-.44,1.42-.36,1.02-.72,2.04-1.08,3.06-.75,2.12-1.5,4.24-2.25,6.36-1.55,4.4-3.11,8.79-4.66,13.19-.97,2.74,3.14,5.25,5.01,2.92,2.85-3.54,5.37-7.3,7.4-11.37,1.02-2.04,1.92-4.14,2.73-6.27.3-.8.58-1.6.97-2.36.23-.45.47-.93.78-1.33-.08.1,0,0,.26-.29.4-.37.36-.37-.12.02h-1.6c-.83-.35-1.26-.89-1.3-1.62-.01.33-.01.39,0,.19.03-.2,0-.15-.06.16-.1.3-.19.6-.29.9-.29.9-.6,1.79-.91,2.69-.7,2.01-1.44,4-2.22,5.98-1.5,3.79-3.17,7.5-4.98,11.15-.72,1.45-.39,3.25,1.08,4.1s3.3.33,4.1-1.08c2.45-4.26,4.89-8.52,7.34-12.78,1.13-1.97,2.22-3.96,3.42-5.89.9-1.45,1.91-2.94,3.31-3.95l-4.1-4.1c-6.53,9.28-12.99,18.61-19.39,27.97-.91,1.34-.25,3.33,1.08,4.1,1.48.87,3.19.27,4.1-1.08,6.4-9.37,12.87-18.69,19.39-27.97,1.69-2.4-1.7-5.84-4.1-4.1-3.9,2.81-6.04,7.06-8.39,11.14-2.61,4.54-5.22,9.09-7.83,13.63l5.18,3.03c1.86-3.76,3.58-7.59,5.15-11.49.77-1.9,1.5-3.81,2.19-5.74.63-1.77,1.45-3.62,1.8-5.48.37-1.99-.11-4.18-2-5.22-2.43-1.33-4.67.5-6.05,2.37-2.13,2.88-2.94,6.68-4.51,9.88-1.83,3.73-4.05,7.3-6.66,10.54l5.01,2.92c1.78-5.03,3.55-10.05,5.33-15.08.89-2.51,1.79-5.02,2.66-7.54.78-2.24,1.06-4.85-.87-6.61-2.39-2.18-5.82-.95-7.47,1.44-1.34,1.95-2.18,4.36-3.27,6.46-1.15,2.22-2.36,4.42-3.62,6.58-.93,1.59-1.81,3.02-3.48,3.75l3.64.47.37,1.13c-.05.21-.05.2,0,0,.06-.03.31-.9.3-.88.24-.63.49-1.26.75-1.88.5-1.21,1.06-2.41,1.64-3.59,1.26-2.56,2.67-5.04,4.21-7.44.88-1.36.28-3.31-1.08-4.1-1.45-.85-3.23-.29-4.1,1.08h0Z"/><path class="cls-4" d="m202.73,150.38c-2.07,12.2-5.49,24.13-10.22,35.57l5.79,1.6c3.46-12.45,6.92-24.9,10.4-37.35l-5.48.72c1.41,3.08,1.53,6.58.6,9.8-.41,1.42.38,2.99,1.74,3.54,1.25.5,3.14.16,3.75-1.23,1.77-4.03,4.64-7.26,8.52-9.36l-4.41-1.79c.86,5.72.65,11.64-.54,17.29l5.79,1.6c.65-4.46,2.96-8.47,6.78-10.94l-4.41-1.79c.63,1.79.58,3.73-.7,5.25l5.01,2.92c.22-1.43.64-2.86,1.55-4.02l-5.01-2.92c-.47,1.33-1.24,2.49-2.21,3.51l5.12,2.12c.48-3.9,2.2-7.54,4.58-10.63.9-1.17.3-3.07-.77-3.87s-2.97-.93-3.94.23c-6.08,7.27-13.73,12.91-22.46,16.6-2.75,1.16-1.33,5.8,1.51,5.59,4.05-.3,7.94-1.55,11.28-3.9l-4.41-1.79c.91,5.91.03,12.21-2.45,17.66-.67,1.47-.42,3.23,1.08,4.1,1.39.81,3.3.34,4.1-1.08,2.87-5.08,5.75-10.17,8.62-15.25l-5.48-2.31c-2.84,10.15-6.9,19.87-12.14,29.02l5.48.72c-1.19-2.89-2.37-5.78-3.56-8.67-.46-1.13-1.2-2-2.49-2.15-1.1-.13-2.48.35-2.99,1.43-2.17,4.66-4.34,9.31-6.5,13.97l5.48.72c-1.55-5.59-2.74-11.27-3.56-17.01l-5.79,1.6c.9,5.59.17,11.29-1.8,16.57l5.89.8c.13-2.21.99-4.18,2.29-5.95l-5.48-2.31c-3.23,11.9-8.2,23.2-14.75,33.64l5.59,1.51c-.23-5.87,1.57-11.44,5.09-16.13l-5.48-2.31c-2.41,8.25-5.08,16.43-8.01,24.51-.98,2.71,3.18,5.29,5.01,2.92,9.88-12.75,18.68-26.27,26.24-40.53l-5.18-3.03c-4.99,11.66-9.99,23.32-14.98,34.98-.64,1.49-.44,3.22,1.08,4.1,1.29.75,3.43.41,4.1-1.08,3.6-7.92,8.86-14.83,15.54-20.39l-5.01-2.92c-4.79,12.26-11.6,23.8-20,33.94l5.01,2.92c1.35-3.77,2.71-7.55,4.06-11.32,1.17-3.27-3.77-5.15-5.48-2.31-4.82,8-9.63,16-14.45,23.99-2,3.32,3.19,6.34,5.18,3.03,4.82-8,9.63-16,14.45-23.99l-5.48-2.31c-1.35,3.77-2.71,7.55-4.06,11.32-.99,2.76,3.12,5.21,5.01,2.92,9.11-10.99,16.35-23.29,21.55-36.58.48-1.22-.32-2.77-1.38-3.39-1.22-.71-2.6-.39-3.64.47-7.02,5.84-12.71,13.29-16.48,21.6l5.18,3.03c4.99-11.66,9.99-23.32,14.98-34.98.64-1.49.44-3.22-1.08-4.1-1.36-.79-3.34-.36-4.1,1.08-7.31,13.78-15.75,26.98-25.3,39.31l5.01,2.92c2.93-8.08,5.6-16.26,8.01-24.51.42-1.42-.38-3-1.74-3.54-1.49-.6-2.82,0-3.75,1.23-4.09,5.46-6.17,12.35-5.91,19.16.12,2.98,3.99,4.07,5.59,1.51,6.81-10.85,12-22.71,15.36-35.07.39-1.43-.37-2.99-1.74-3.54-1.48-.59-2.84-.01-3.75,1.23-1.93,2.63-2.91,5.75-3.11,8.98-.09,1.47,1.21,2.78,2.6,2.95,1.56.19,2.75-.71,3.29-2.15,2.37-6.33,2.88-13.11,1.8-19.76-.26-1.6-2.25-2.49-3.69-2.1-1.72.47-2.33,2.08-2.1,3.69.82,5.74,2.01,11.42,3.56,17.01.64,2.31,4.36,3.14,5.48.72,2.17-4.66,4.34-9.31,6.5-13.97l-5.48-.72c1.19,2.89,2.37,5.78,3.56,8.67.46,1.13,1.2,2,2.49,2.15,1.17.14,2.38-.37,2.99-1.43,5.48-9.57,9.77-19.83,12.75-30.45.91-3.25-3.79-5.3-5.48-2.31-2.87,5.08-5.75,10.17-8.62,15.25l5.18,3.03c3.21-7.05,4.24-14.62,3.05-22.28-.28-1.84-2.94-2.83-4.41-1.79-2.46,1.73-5.23,2.86-8.25,3.09l1.51,5.59c9.13-3.86,17.32-9.94,23.67-17.54l-4.71-3.64c-3.08,3.99-4.79,8.69-5.4,13.66-.33,2.65,3.46,3.87,5.12,2.12s2.92-3.83,3.75-6.16c.98-2.73-3.15-5.26-5.01-2.92-1.57,1.97-2.72,4.15-3.1,6.67-.2,1.34.13,2.66,1.38,3.39,1.08.63,2.79.54,3.64-.47,2.57-3.08,3.61-7.23,2.24-11.09-.61-1.73-2.68-2.92-4.41-1.79-5.02,3.27-8.66,8.56-9.53,14.53-.23,1.6.4,3.22,2.1,3.69,1.49.41,3.36-.5,3.69-2.1,1.43-6.79,1.58-13.63.54-20.48-.3-2-2.88-2.62-4.41-1.79-4.68,2.54-8.53,6.63-10.67,11.51l5.48,2.31c1.4-4.86.88-9.86-1.21-14.43-1.11-2.43-4.84-1.6-5.48.72-3.47,12.45-6.94,24.9-10.4,37.35-.43,1.56.54,3.26,2.1,3.69,1.72.47,3.07-.59,3.69-2.1,4.72-11.44,8.15-23.37,10.22-35.57.27-1.6-.42-3.23-2.1-3.69-1.44-.4-3.42.49-3.69,2.1h0Z"/><path class="cls-4" d="m205.12,170.94c-5.57,6.45-8.57,14.94-7.91,23.48.12,1.62,1.29,3,3,3,1.53,0,3.12-1.38,3-3-.54-7,1.6-13.97,6.16-19.24,1.06-1.22,1.2-3.04,0-4.24-1.08-1.08-3.18-1.23-4.24,0h0Z"/><path class="cls-4" d="m198.98,183.96c-3,3.03-5.21,6.76-6.46,10.83-.46,1.5.55,3.34,2.1,3.69,1.62.37,3.2-.49,3.69-2.1.23-.75.5-1.49.8-2.22l-.3.72c.78-1.84,1.79-3.57,3.01-5.15l-.47.61c.58-.75,1.21-1.46,1.87-2.13,1.11-1.12,1.2-3.14,0-4.24s-3.06-1.19-4.24,0h0Z"/><path class="cls-4" d="m204.78,148.5c.24,1.01.45,2.03.62,3.06.04.24.08.47.11.71.02.11.14.93.03.15.07.51.13,1.03.18,1.55.2,2.03.26,4.07.2,6.11-.05,1.57,1.41,3.07,3,3,1.67-.07,2.95-1.32,3-3,.13-4.42-.34-8.87-1.35-13.17-.36-1.53-2.19-2.58-3.69-2.1-1.6.52-2.48,2.05-2.1,3.69h0Z"/><path class="cls-4" d="m178.98,252.82c-.15.87-.36,1.73-.64,2.57-.13.39-.28.76-.41,1.14-.08.21-.05.14.09-.21-.04.1-.09.2-.13.3-.08.17-.15.33-.24.5-.39.79-.83,1.56-1.32,2.3-.12.18-.25.37-.38.55-.05.07-.42.59-.16.23s-.19.23-.25.3c-.14.17-.29.34-.43.5-.56.63-1.16,1.23-1.8,1.79-.17.15-.33.29-.51.43-.15.12-.58.6-.09.08-.26.27-.68.49-.99.7-.71.46-1.44.88-2.21,1.25-.03.01-.6.26-.6.28l.31-.13c-.14.06-.27.11-.41.16-.41.16-.83.3-1.26.43-1.5.46-2.6,2.12-2.1,3.69s2.08,2.59,3.69,2.1c7.83-2.39,14.18-9.24,15.62-17.36.27-1.54-.42-3.31-2.1-3.69-1.46-.33-3.4.44-3.69,2.1h0Z"/><path class="cls-4" d="m164.57,271c6.69,2.35,14.11,1.73,20.44-1.37,1.41-.69,1.91-2.81,1.08-4.1-.93-1.45-2.59-1.82-4.1-1.08-.37.18-.73.36-1.11.52.43-.18-.46.17-.56.2-.72.26-1.45.48-2.19.67-.69.17-1.39.31-2.1.43s.22,0-.42.05c-.41.03-.81.07-1.22.1-.71.04-1.43.04-2.14.02-.41-.02-.81-.04-1.22-.08-.11,0-.96-.11-.42-.03-1.51-.2-3-.59-4.44-1.1s-3.35.59-3.69,2.1c-.38,1.68.51,3.13,2.1,3.69h0Z"/><path class="cls-4" d="m186.02,264.3c-3.03-.65-6.14-.93-9.24-.72-.8.05-1.54.3-2.12.88-.52.52-.91,1.37-.88,2.12.07,1.53,1.32,3.11,3,3,2.01-.14,4.03-.07,6.03.19l-.8-.11c.81.11,1.61.25,2.41.42s1.6.11,2.31-.3c.62-.36,1.22-1.08,1.38-1.79.34-1.51-.45-3.34-2.1-3.69h0Z"/><path class="cls-4" d="m167.62,262.93c-.8,1.94-.85,4.09-.47,6.13.09.39.27.73.54,1.02.21.33.49.58.84.77.64.38,1.59.54,2.31.3s1.43-.68,1.79-1.38l.3-.72c.14-.53.14-1.06,0-1.6-.02-.13-.05-.27-.07-.4l.11.8c-.1-.73-.1-1.46,0-2.18l-.11.8c.1-.67.27-1.32.53-1.95.13-.4.14-.8.05-1.2-.02-.4-.14-.77-.36-1.12-.36-.62-1.08-1.22-1.79-1.38-.77-.17-1.63-.14-2.31.3l-.61.47c-.37.37-.63.82-.77,1.32h0Z"/><path class="cls-4" d="m153.53,298.32c7.34,1.43,14.59,3.24,21.74,5.44,1.55.48,3.27-.57,3.69-2.1.44-1.61-.54-3.21-2.1-3.69-7.15-2.2-14.4-4.01-21.74-5.44-1.59-.31-3.24.45-3.69,2.1-.4,1.47.5,3.38,2.1,3.69h0Z"/><path class="cls-4" d="m147.07,312.81c1.01,7.66,2.52,15.21,4.64,22.64.45,1.56,2.12,2.53,3.69,2.1s2.54-2.13,2.1-3.69c-1.97-6.89-3.49-13.93-4.43-21.04-.21-1.61-1.23-3-3-3-1.46,0-3.21,1.38-3,3h0Z"/><path class="cls-4" d="m174.28,299.12c-6.31,10.37-12.26,21.21-20.1,30.53-1.04,1.24-1.21,3.03,0,4.24,1.07,1.07,3.19,1.25,4.24,0,8.19-9.73,14.45-20.92,21.04-31.74,2.01-3.31-3.17-6.33-5.18-3.03h0Z"/><path class="cls-4" d="m206.58,146.82c4.91-.42,9.86.3,14.36,2.37l2.31-5.48c-4.58-1.31-9.25-2.55-14.05-2.45-1.17.02-2.72.9-2.89,2.2-.25,1.87.17,3.41,1.75,4.58,1.3.96,2.75,1.2,4.3,1.45,3.42.55,6.84,1.1,10.27,1.65l.8-5.89c-4.46.4-8.96.29-13.38-.47-1.6-.27-3.23.42-3.69,2.1-.43,1.58.53,3.24,2.1,3.69,3.8,1.09,7.6,2.18,11.39,3.26l.8-5.89c-4.62-.15-9.12-1.37-13.18-3.59l-2.31,5.48c1.02.19,1.99.54,2.6,1.41.87,1.21,2.3,1.86,3.75,1.23,1.36-.6,2.13-2.06,1.74-3.54-.42-1.56-1.09-3.05-2.05-4.35-.8-1.09-2.01-1.76-3.39-1.38-1.2.33-2.3,1.59-2.2,2.89.25,3.28,0,6.47-.83,9.65l5.48-.72c-.42-.66-.71-1.48-.41-2.18l-5.48-.72c1.45,4.06.88,8.74-2.02,12.12l5.01,2.92c.81-2.11,1.99-4.14,3.43-5.88l-5.12-2.12c-.31,3.73-1.61,7.25-3.64,10.38l5.48,2.31c1.31-6.43,4.02-12.55,8.14-17.68l-5.01-2.92c-.99,3.64-2.72,7.03-5.2,9.89l5.12,2.12c.47-3.96,1.5-7.86,2.9-11.6l-5.79-1.6c-1.2,4.73-3.31,9.06-6.24,12.97l5.48.72c-.91-2.45-.54-4.98,1.37-6.89l-5.01-1.32c.57,3.91-.98,8.18-3.87,11.07l5.01,2.92c.51-2.82,1.63-5.41,3.54-7.57l-5.12-2.12c.32,2.83,0,5.66-1.23,8.26l5.48,2.31c2.75-6.82,7.58-12.9,13.56-17.16l-4.41-3.39c-1.14,4.83-2.9,9.41-5.34,13.74l5.48.72c-1.07-3-.53-6.2,1.8-8.53l-5.12-2.12c.28,3.37-.58,6.44-2.55,9.19h5.18c-.47-1.09-.17-2.35.43-3.35l-5.48-.72c-.02-.12,0-.25.04-.37.15-.22.13-.17-.06.14.48.11-.27-.68-.07-.03.09-.08.19-.14.31-.16-.41-.02-.8.07-1.16.26-.78.33-1.21.89-1.66,1.59-1.35,2.08-1.95,4.19-1.61,6.66.31,2.27,3.61,2.83,5.01,1.32,5.4-5.78,10.83-11.53,16.2-17.34l-5.01-2.92c-.65,1.64-1.61,3.23-2.73,4.59l4.71,3.64c.31-.73.5-1.01,1.04-1.33l-4.41-1.79c.34.82.5,1.47.28,2.32-.97,3.75,4.66,5.29,5.79,1.6l1.64-5.38-4.41,1.79c-.39-.22-.43-.91-.37-1.25-.25,1.47.26,2.95,1.74,3.54,1.38.56,2.96.08,3.75-1.23.37-.62.74-1.24,1.11-1.86h-5.18c-.05-.25-.05-.51-.02-.77-.52,2.82,2.76,5.17,5.01,2.92.52-.52,1.03-1.04,1.55-1.55l-5.12-2.12c.06.55.1.46-.3.79l4.71,3.64,1.1-1.94-5.48-2.31c-.49,2.77-1.42,5.3-2.88,7.7l5.48.72c-.22-.61-.21-.72.19-1.29l-5.18-3.03c-1.42,3.3-3.19,6.49-5.4,9.33l5.12,2.12c-.27-3.41.8-6.62,3.29-9.08l-5.01-2.92c-.55,3.98-1.42,7.9-2.59,11.74-.43,1.42.4,3,1.74,3.54,1.47.59,2.85.02,3.75-1.23,1.3-1.82,2.61-3.64,3.91-5.46l-5.48-2.31c-.46,2.03-1.31,3.91-2.67,5.5l5.12,2.12c.17-4.21,1.4-8.23,3.55-11.84l-5.18-3.03c-.29.57-.59,1.14-.88,1.71l5.59,1.51.23-3.04h-6c-.03,8.21-6.52,15.06-9.96,22.24l5.59,1.51c.1-2.09.65-4.1,1.62-5.95l-5.48-2.31c-.44,3.05-1.24,6.01-2.39,8.88-1.26,3.13,4.12,5.42,5.48,2.31s3.12-6.21,5.15-9.04l-5.48-.72c.61,1.92.28,3.61-.97,5.28l5.48.72c-.58-2.38.05-4.72,1.62-6.75l-5.48-.72c.15,1.04-.15,2.15-.64,3.06l5.59,1.51c.16-1.28.76-2.44,1.47-3.49l-5.48-.72.08-.95c-2.04,3.29,3.15,6.31,5.18,3.03.72-1.16.83-2.36.53-3.67-.62-2.67-4.12-2.74-5.48-.72s-1.99,4.16-2.29,6.52c-.39,3.02,4.26,3.98,5.59,1.51s1.65-4.96,1.24-7.69c-.17-1.14-1.45-2.03-2.49-2.15-1.3-.15-2.22.43-2.99,1.43-2.47,3.21-3.17,7.48-2.22,11.37.28,1.14,1.36,2.01,2.49,2.15,1.29.15,2.24-.42,2.99-1.43,2.08-2.79,2.63-6.61,1.58-9.91-.83-2.6-3.99-2.79-5.48-.72-2.04,2.83-3.76,5.84-5.15,9.04l5.48,2.31c1.15-2.86,1.95-5.82,2.39-8.88.22-1.48-.24-2.94-1.74-3.54-1.32-.53-3.04-.12-3.75,1.23-1.48,2.82-2.29,5.8-2.44,8.98-.14,2.89,4.3,4.21,5.59,1.51,3.96-8.28,10.74-15.6,10.78-25.27,0-1.62-1.38-3-3-3-1.73,0-2.88,1.38-3,3l-.23,3.04c-.22,2.96,4.26,4.1,5.59,1.51.29-.57.59-1.14.88-1.71,1.76-3.42-3.19-6.37-5.18-3.03-2.69,4.52-4.16,9.61-4.37,14.87-.1,2.49,3.43,4.1,5.12,2.12,2.03-2.37,3.51-5.09,4.21-8.15.78-3.43-3.53-5.04-5.48-2.31-1.3,1.82-2.61,3.64-3.91,5.46l5.48,2.31c1.17-3.84,2.04-7.76,2.59-11.74.19-1.34-.13-2.65-1.38-3.39-1.15-.67-2.69-.47-3.64.47-3.5,3.46-5.44,8.4-5.05,13.32.09,1.21.67,2.27,1.84,2.74,1,.4,2.54.32,3.28-.62,2.54-3.27,4.7-6.74,6.34-10.55.64-1.49.44-3.22-1.08-4.1s-3.17-.26-4.1,1.08c-1.18,1.69-1.48,3.98-.79,5.92.85,2.4,4.08,3.01,5.48.72,1.71-2.8,2.92-5.9,3.49-9.13.26-1.47-.27-2.95-1.74-3.54-1.36-.55-2.99-.1-3.75,1.23l-1.1,1.94c-.73,1.29-.42,2.98.77,3.87,1.26.94,2.77.76,3.94-.23,1.43-1.2,2.25-3.17,2.05-5.04-.26-2.47-3.14-4.1-5.12-2.12-.52.52-1.03,1.04-1.55,1.55l5.01,2.92c.26-1.39.16-2.63-.58-3.86-1.17-1.93-4.01-1.95-5.18,0-.37.62-.74,1.24-1.11,1.86l5.48,2.31c.38-2.25-.34-4.35-2.39-5.53-1.71-.99-3.84-.06-4.41,1.79l-1.64,5.38,5.79,1.6c.47-1.82.45-3.76-.28-5.51s-2.56-2.87-4.41-1.79c-1.38.81-2.56,2-3.2,3.48-.59,1.38-.52,2.9.77,3.87,1.1.82,2.98.93,3.94-.23,1.83-2.22,3.21-4.56,4.27-7.23,1.13-2.83-3.08-5.01-5.01-2.92-5.37,5.81-10.8,11.56-16.2,17.34l5.01,1.32c-.09-.65.9-1.87,1.24-2.39l-2.59,1.49c3.76,0,6.43-3.59,5.57-7.19-.61-2.56-4.19-2.87-5.48-.72-1.78,2.97-1.77,6.29-.43,9.41.98,2.28,4.03,1.6,5.18,0,2.51-3.5,3.73-7.92,3.37-12.21-.2-2.5-3.18-4.07-5.12-2.12-3.69,3.69-5.11,9.42-3.35,14.37.83,2.33,4.14,3.1,5.48.72,2.68-4.75,4.7-9.86,5.94-15.17.55-2.33-2.15-5-4.41-3.39-7.38,5.25-12.94,12.36-16.32,20.75-.55,1.37.49,3.04,1.74,3.54s3.09.14,3.75-1.23c1.68-3.53,2.49-7.38,2.05-11.29-.14-1.21-.64-2.26-1.84-2.74-1.06-.43-2.47-.29-3.28.62-2.57,2.91-4.39,6.38-5.08,10.22-.51,2.81,2.76,5.18,5.01,2.92,4.48-4.49,6.31-10.7,5.41-16.91-.34-2.31-3.57-2.77-5.01-1.32-3.26,3.27-4.53,8.36-2.91,12.73.95,2.56,3.91,2.82,5.48.72,3.21-4.29,5.53-9.22,6.85-14.4.4-1.57-.51-3.26-2.1-3.69-1.68-.46-3.12.57-3.69,2.1-1.6,4.27-2.57,8.67-3.11,13.19-.3,2.56,3.5,3.99,5.12,2.12,3.16-3.64,5.48-7.87,6.75-12.53.35-1.28-.23-2.72-1.38-3.39-1.06-.62-2.81-.55-3.64.47-4.77,5.95-8.16,12.84-9.68,20.33-.67,3.31,3.59,5.24,5.48,2.31,2.62-4.05,4.06-8.62,4.46-13.41.21-2.5-3.5-4.09-5.12-2.12-2.15,2.6-3.77,5.38-4.98,8.53-1.07,2.78,3.11,5.13,5.01,2.92,4.21-4.9,5.76-11.8,3.57-17.96-.4-1.13-1.25-2-2.49-2.15-1.07-.13-2.52.34-2.99,1.43-1.18,2.73-1.22,5.65.41,8.23,1.35,2.13,4.81,1.86,5.48-.72.96-3.66,1.33-7.47,1.05-11.25l-5.59,1.51c.68.92,1.15,1.82,1.45,2.92l5.48-2.31c-1.51-2.11-3.59-3.69-6.19-4.17-1.47-.27-2.95.28-3.54,1.74-.54,1.34-.11,3.02,1.23,3.75,5,2.73,10.51,4.22,16.21,4.41,3.42.11,4.02-4.97.8-5.89-3.8-1.09-7.6-2.18-11.39-3.26l-1.6,5.79c4.96.85,9.96,1.13,14.97.68,1.48-.13,2.76-1.04,2.95-2.6.16-1.34-.66-3.05-2.15-3.29-2.44-.39-4.89-.79-7.33-1.18-1.14-.18-2.28-.37-3.42-.55-.53-.08-1.08-.24-1.61-.3-.36-.11-.42-.14-.2-.07.43.46.57,1.06.43,1.8l-2.89,2.2c4.28-.09,8.37,1.07,12.46,2.24,1.42.41,2.99-.38,3.54-1.74.51-1.27.15-3.11-1.23-3.75-5.45-2.51-11.38-3.7-17.38-3.19-1.61.14-3,1.28-3,3,0,1.52,1.38,3.14,3,3h0Z"/><path class="cls-4" d="m220.37,169.55l-.32,2.55c-.02.41.07.8.26,1.16.12.37.33.69.62.97.27.29.59.5.97.62.36.19.74.27,1.16.26l.8-.11c.51-.14.95-.4,1.32-.77l.47-.61c.27-.47.41-.97.41-1.51l.32-2.55c.02-.41-.07-.8-.26-1.16-.12-.37-.33-.69-.62-.97-.27-.29-.59-.5-.97-.62-.36-.19-.74-.27-1.16-.26l-.8.11c-.51.14-.95.4-1.32.77l-.47.61c-.27.47-.41.97-.41,1.51h0Z"/><path class="cls-4" d="m210.47,144.34c.13.34.14.35.03.03-.07-.34-.08-.32-.03.07-.02-.25,0-.49,0-.74,0,.65.04.04.09-.17-.16.33-.16.35,0,.04.08-.14.17-.28.27-.41l-4.71.61c-.42-.9-.57-1.15-.46-.75.06.23.04.12-.04-.32,0,0-.02.48-.02.51-.03.38-.08.77-.08,1.15.02,1.33.53,2.67,1.58,3.53,1.62,1.34,3.74,2.1,5.75,2.66,1.75.49,3.55.82,5.31,1.27.89.23,1.76.51,2.62.84-.39-.15-.18-.08.08.04.19.09.37.18.55.27.44.23.86.5,1.27.78l3.03-5.18c-.36-.16-.72-.31-1.08-.47-1.43-.63-3.29-.47-4.1,1.08-.69,1.3-.46,3.44,1.08,4.1.36.16.72.31,1.08.47,1.43.63,3.29.47,4.1-1.08s.31-3.15-1.08-4.1c-3.13-2.16-6.93-2.69-10.54-3.61-.85-.22-1.7-.46-2.53-.77-.07-.03-.71-.3-.34-.13s-.25-.12-.32-.16c-.22-.11-.45-.23-.66-.35-.16-.09-.45-.44-.28-.14.15.25.35.44.45.74-.18-.51-.06.56.02,0,.05-.34.06-.71.08-1.05.08-1.4-.37-2.51-1.24-3.58-1.31-1.61-3.72-.82-4.71.61-1.5,2.18-1.44,4.92-.34,7.23.67,1.42,2.83,1.9,4.1,1.08,1.46-.94,1.8-2.58,1.08-4.1h0Z"/><path class="cls-4" d="m208.72,166.99c.19,4.59-2.24,8.61-4.51,12.42-1.99,3.33,3.12,6.28,5.18,3.03,2.57-4.04,4.67-8.33,6.38-12.8l-5.79-1.6c-1.56,5.4-3.13,10.8-5.1,16.07l5.89.8c.38-3.45,1.83-6.65,3.89-9.41l-5.18-3.03c-1.98,4.67-4.42,9.11-7.29,13.29h5.18c-.28-.47.02-1.63.12-2.32.21-1.45.42-2.89.64-4.34.41-2.81.82-5.63,1.24-8.44.23-1.6-.4-3.22-2.1-3.69-1.61-.44-3.21.54-3.69,2.1-1.65,5.37-3.3,10.77-5.76,15.84l5.59,1.51c-.5-5.88.1-11.67,1.82-17.31l-5.89-.8c-.03,5.15-.76,10.19-2.19,15.14l5.89.8c-.09-1.18-.2-2.39-.06-3.58.08-.67.3-1.44.79-1.97l-5.01-2.92c-1.07,5.12-2.59,10.17-4.64,14.98l5.48,2.31c.63-2.28,1.37-4.52,2.22-6.73l-5.79-1.6c-.72,2.25-1.65,4.38-2.79,6.44l5.48.72c-.38-1.31-.17-2.37.68-3.56l-5.59-1.51c-.13,1.92-.56,3.76-1.19,5.58-1.14,3.28,3.77,5.16,5.48,2.31l.86-1.43-5.48-.72c.38,1.94.63,3.88.76,5.85.1,1.48,1.06,2.76,2.6,2.95,1.33.16,3.07-.66,3.29-2.15.42-2.77,1.17-5.45,2.25-8.03l-5.89-.8c-.22,2.51-.44,5.03-.66,7.54-.26,2.92,4.33,4.15,5.59,1.51.6-1.24.9-2.37,1-3.75.12-1.62-1.46-3-3-3-1.72,0-2.88,1.38-3,3,0-.02-.15.66-.18.72l5.59,1.51c.22-2.51.44-5.03.66-7.54.13-1.47-1.24-2.78-2.6-2.95-1.6-.19-2.7.73-3.29,2.15-1.08,2.58-1.83,5.26-2.25,8.03l5.89.8c-.17-2.5-.5-4.99-.98-7.45-.51-2.62-4.23-2.8-5.48-.72l-.86,1.43,5.48,2.31c.81-2.32,1.24-4.72,1.4-7.17.09-1.3-.99-2.56-2.2-2.89-1.36-.37-2.61.28-3.39,1.38-1.67,2.35-2.09,5.44-1.29,8.19.71,2.42,4.21,3.02,5.48.72,1.39-2.51,2.52-5.15,3.4-7.88.49-1.54-.58-3.27-2.1-3.69-1.7-.47-3.1.58-3.69,2.1-.86,2.21-1.6,4.45-2.22,6.73-.39,1.43.37,2.99,1.74,3.54,1.24.5,3.15.16,3.75-1.23,2.27-5.31,4.06-10.76,5.25-16.41.58-2.78-2.84-5.22-5.01-2.92-2.53,2.69-2.77,6.27-2.49,9.78.12,1.48,1.05,2.76,2.6,2.95s2.87-.68,3.29-2.15c1.56-5.43,2.37-11.08,2.4-16.73.02-3.43-4.91-4.01-5.89-.8-1.86,6.1-2.57,12.55-2.03,18.9.11,1.33.85,2.52,2.2,2.89,1.21.33,2.81-.2,3.39-1.38,2.69-5.54,4.56-11.4,6.36-17.27l-5.79-1.6c-.48,3.3-.97,6.59-1.45,9.89s-1.66,6.9.06,9.83c1.21,2.05,3.93,1.82,5.18,0,2.87-4.18,5.31-8.62,7.29-13.29.63-1.49.45-3.21-1.08-4.1s-3.13-.23-4.1,1.08c-2.73,3.65-4.21,7.93-4.71,12.43-.16,1.46,1.26,2.79,2.6,2.95,1.56.19,2.76-.71,3.29-2.15,1.97-5.27,3.54-10.67,5.1-16.07.45-1.56-.55-3.26-2.1-3.69-1.69-.46-3.11.58-3.69,2.1-1.52,3.98-3.49,7.77-5.77,11.37l5.18,3.03c2.81-4.71,5.57-9.79,5.33-15.45-.07-1.62-1.33-3-3-3-1.57,0-3.07,1.37-3,3h0Z"/><path class="cls-4" d="m210.46,183.78c-1.94,4.07-3.54,8.3-4.71,12.65l5.79,1.6c.26-1.32.64-2.6,1.1-3.85.24-.66.5-1.31.76-1.95.03-.07.36-.86.2-.48.13-.3.25-.6.38-.89,1.1-2.61,2.2-5.22,2.67-8.03.25-1.49-.27-2.92-1.74-3.54-1.34-.56-3.02-.09-3.75,1.23-3.53,6.33-7.05,12.67-10.58,19l5.59,1.51c.08-5.48.16-10.96.24-16.43.02-1.61-1.39-3.02-3-3-1.97.02-3.44,1.34-4.02,3.17-.44,1.38-.33,2.94-.35,4.37-.05,3.2-.04,6.41.04,9.61.03,1.21.73,2.27,1.84,2.74,1.02.43,2.52.3,3.28-.62,1.21-1.47,1.61-2.94,1.26-4.81-.28-1.55-2.24-2.56-3.69-2.1-1.66.54-2.4,2.03-2.1,3.69-.08-.44-.08-.59.28-1.02l5.12,2.12c-.06-2.45-.08-4.9-.06-7.35,0-1.19.02-2.39.05-3.58,0-.31.01-.63.02-.94s.17-.6-.03-.07c.01-.04.13-.44.12-.45-.04.18-.11.33-.24.46-.34.48-.85.74-1.53.77l-3-3c-.08,5.48-.16,10.96-.24,16.43-.04,2.95,4.14,4.11,5.59,1.51,3.53-6.33,7.05-12.67,10.58-19l-5.48-2.31c-.92,5.56-4.01,9.65-5.1,15.21-.3,1.54.43,3.31,2.1,3.69s3.26-.47,3.69-2.1c1.05-3.94,2.42-7.69,4.1-11.22.68-1.41.44-3.3-1.08-4.1-1.34-.71-3.38-.44-4.1,1.08h0Z"/><path class="cls-4" d="m218.43,173.29c-1.48,4.56-3.52,8.87-6.06,12.93l5.59,1.51c.25-2.56,1.41-5.01,3.14-6.9l-5.01-2.92c-2.12,6.29-4.25,12.57-6.37,18.86l5.89.8c.16-2.98,1.19-5.73,2.85-8.19l-5.48-2.31c-1.71,5.6-4.08,10.92-7.08,15.95l5.48.72c-.54-2.01-.23-3.98.87-5.78l-5.48-2.31c-1.31,3.13-2.61,6.27-3.92,9.4l5.79,1.6c.47-2.78,1.68-5.14,3.74-7.07l-5.01-1.32c.57,1.45.57,2.5-.27,3.83l5.48,2.31c.6-1.93,1.2-3.86,1.8-5.79l-5.89-.8c0,2.1-.58,3.96-1.73,5.72l5.59,1.51c.2-1.58,1.17-3.02,2.33-4.09l-4.71-3.64c-2.58,5.82-5.42,11.52-8.52,17.08l5.48,2.31c.92-2.54,1.84-5.08,2.77-7.62l-5.89-.8c-.03,2.36-.68,4.52-1.92,6.52l5.18,3.03c1.27-2.51,2.53-5.01,3.8-7.52l-5.59-1.51c-.05.99-.44,1.87-1.11,2.6l5.12,2.12c0-.51.09-.82.35-1.26l-5.48-2.31c-.42,1.82-1.14,3.54-2.33,5.01l5.01,1.32c-.73-4.61-1.09-9.27-1.15-13.94-.04-3.27-5.22-4.22-5.89-.8s-.98,6.63-.9,9.98c.03,1.32.91,2.54,2.2,2.89,1.18.32,2.86-.18,3.39-1.38,1.66-3.79,3.33-7.58,4.99-11.37l-5.48-2.31c-.96,4.2-2.59,8.08-4.92,11.7l5.48,2.31c.54-3.15,1.07-6.3,1.61-9.45.27-1.6-.42-3.23-2.1-3.69s-3.15.56-3.69,2.1c-1.33,3.82-2.67,7.65-4,11.47h5.79c-.68-2.51-1.37-5.01-2.05-7.52s-4.2-2.96-5.48-.72c-1.36,2.38-2.72,4.75-4.09,7.13l5.48.72c-.57-3.23-.67-6.63-.22-9.89.22-1.6-.39-3.22-2.1-3.69-1.42-.39-3.44.48-3.69,2.1-.47,3.06-1.48,5.88-3.12,8.51l5.48.72c-.65-3.77-.08-7.57,1.33-11.1.6-1.5-.66-3.3-2.1-3.69-1.71-.47-3.09.58-3.69,2.1-1.83,4.56-2.17,9.47-1.33,14.29.46,2.68,4.23,2.73,5.48.72,1.89-3.03,3.18-6.42,3.72-9.94l-5.79-1.6c-.61,4.4-.56,8.69.22,13.08.46,2.61,4.28,2.82,5.48.72,1.36-2.38,2.72-4.75,4.09-7.13l-5.48-.72c.68,2.51,1.37,5.01,2.05,7.52.82,2.99,4.84,2.7,5.79,0,1.33-3.82,2.67-7.65,4-11.47l-5.79-1.6c-.54,3.15-1.07,6.3-1.61,9.45-.25,1.47.26,2.95,1.74,3.54s2.92.06,3.75-1.23c2.59-4.01,4.47-8.48,5.53-13.13.33-1.45-.32-2.97-1.74-3.54-1.25-.5-3.14-.16-3.75,1.23-1.66,3.79-3.33,7.58-4.99,11.37l5.59,1.51c-.06-2.82.15-5.61.69-8.38l-5.89-.8c.07,5.21.55,10.39,1.37,15.54.34,2.14,3.66,2.99,5.01,1.32,1.84-2.27,3.2-4.79,3.87-7.66.76-3.26-3.71-5.31-5.48-2.31-.78,1.32-1.17,2.76-1.17,4.29,0,2.52,3.33,4.06,5.12,2.12s2.73-4.22,2.87-6.84c.15-2.93-4.26-4.15-5.59-1.51s-2.53,5.01-3.8,7.52c-1.73,3.43,3.14,6.34,5.18,3.03,1.77-2.88,2.7-6.17,2.74-9.55.02-1.48-1.15-2.77-2.6-2.95-1.55-.18-2.77.71-3.29,2.15-.92,2.54-1.84,5.08-2.77,7.62-1.17,3.22,3.85,5.24,5.48,2.31,3.1-5.56,5.94-11.26,8.52-17.08.6-1.37.51-2.91-.77-3.87s-2.81-.8-3.94.23c-2.42,2.23-3.68,5.12-4.09,8.34-.16,1.28,1.05,2.58,2.2,2.89,1.32.36,2.66-.26,3.39-1.38,1.7-2.6,2.56-5.65,2.55-8.75,0-3.43-4.89-4.01-5.89-.8-.6,1.93-1.2,3.86-1.8,5.79-1.03,3.33,3.71,5.13,5.48,2.31,1.56-2.48,1.96-5.71.88-8.45-.83-2.09-3.24-2.98-5.01-1.32-2.74,2.56-4.66,6.01-5.29,9.72-.27,1.6.42,3.23,2.1,3.69s3.06-.59,3.69-2.1c1.31-3.13,2.61-6.27,3.92-9.4.57-1.36-.5-3.04-1.74-3.54-1.39-.56-2.95-.08-3.75,1.23-1.91,3.12-2.41,6.87-1.47,10.4.67,2.52,4.17,2.91,5.48.72,3.25-5.45,5.83-11.31,7.68-17.38.43-1.42-.4-3-1.74-3.54-1.44-.58-2.89-.04-3.75,1.23-2.26,3.34-3.45,7.21-3.67,11.22-.08,1.47,1.2,2.78,2.6,2.95,1.53.18,2.8-.7,3.29-2.15,2.12-6.29,4.25-12.57,6.37-18.86.96-2.83-3.02-5.09-5.01-2.92-2.88,3.13-4.49,6.92-4.9,11.14-.3,3.13,4.13,3.85,5.59,1.51,2.81-4.49,5.03-9.33,6.66-14.37.5-1.54-.58-3.27-2.1-3.69-1.63-.45-3.19.55-3.69,2.1h0Z"/><path class="cls-4" d="m190.85,195.75c-2.66,7.07-5.32,14.13-7.98,21.2l5.79,1.6c1.4-5.39,4.92-9.9,9.83-12.59l-4.41-3.39c-1.4,4.77-3.12,9.44-5.19,13.96l5.48,2.31c1.49-3.57,2.98-7.14,4.47-10.71l-5.79-1.6c-.71,2.08-1.53,4.12-2.49,6.1-.49,1.01-1,2-1.54,2.97-.29.52-.59,1.04-.89,1.55-.15.26-.31.51-.46.76-.21.44-.28.52-.21.24l1.32-.77-.29.04,2.31.3c1.63.86.59,1.37.79.68.1-.36,0-.19.07-.42.11-.34-.17.11.19-.41-.16.23.51-.48.47-.44l-5.12-2.12c-.49,4.61-1.88,9.14-3.98,13.26l5.59,1.51c.3-4.67,2.73-8.87,4.95-12.87,1.65-2.95-2.26-6.07-4.71-3.64-1.91,1.89-2.89,4.26-3.12,6.92-.25,2.97,4.27,4.09,5.59,1.51,1.42-2.76,3.05-5.43,4.98-7.86l-5.01-2.92c-.96,2.95-2.39,5.67-4.2,8.19l5.48,2.31c.45-2.84,1.17-5.67,2.31-8.31l-5.59-1.51c.45,4.06,0,7.98-1.37,11.83-.44,1.24.29,2.75,1.38,3.39,1.23.72,2.58.38,3.64-.47,2.43-1.95,4.46-4.32,6.12-6.95l-5.48-.72c.11.49.12,1.01-.09,1.49l5.48,2.31c.5-1.79,1.18-3.45,2.09-5.07,1.9-3.37-3.29-6.4-5.18-3.03-1.15,2.05-2.06,4.24-2.7,6.51-.4,1.43.37,2.99,1.74,3.54,1.26.51,3.12.15,3.75-1.23.91-2.01,1.18-3.94.7-6.11-.58-2.63-4.17-2.79-5.48-.72-1.4,2.21-3.15,4.09-5.18,5.73l5.01,2.92c1.53-4.28,2.09-8.91,1.59-13.42-.15-1.33-.83-2.52-2.2-2.89-1.17-.32-2.87.18-3.39,1.38-1.35,3.15-2.37,6.35-2.91,9.75s3.44,5.16,5.48,2.31,3.7-6.19,4.81-9.62c.41-1.25-.27-2.74-1.38-3.39s-2.82-.56-3.64.47c-2.25,2.85-4.25,5.84-5.91,9.08l5.59,1.51c.08-.96.61-1.93,1.36-2.67l-4.71-3.64c-2.79,4.99-5.4,10.09-5.77,15.89-.19,2.94,4.26,4.13,5.59,1.51,2.62-5.13,4.19-10.57,4.8-16.29.12-1.15-.85-2.34-1.84-2.74-1.18-.47-2.33-.19-3.28.62-1.9,1.63-2.73,4.19-2.37,6.62.19,1.31.75,2.68,1.97,3.35,1.74.95,3.64.27,4.75-1.27,2.86-3.97,4.85-8.87,6.42-13.47.52-1.53-.6-3.28-2.1-3.69-1.73-.47-3.06.59-3.69,2.1-1.49,3.57-2.98,7.14-4.47,10.71-.57,1.36.5,3.04,1.74,3.54s3.11.15,3.75-1.23c2.29-4.99,4.25-10.12,5.8-15.39.76-2.58-2.17-4.62-4.41-3.39-6.19,3.39-10.81,9.34-12.59,16.18-.41,1.57.52,3.26,2.1,3.69,1.68.46,3.12-.57,3.69-2.1,2.66-7.07,5.32-14.13,7.98-21.2.57-1.52-.63-3.29-2.1-3.69-1.68-.46-3.12.57-3.69,2.1h0Z"/><path class="cls-4" d="m205.87,210.11c-3.33,5.66-6.69,11.3-10.07,16.93l5.48,2.31c1.36-3.41,2.73-6.81,4.09-10.22l-5.89-.8c-.37,3.42-1.3,6.78-2.56,9.98s4.03,5.38,5.48,2.31c1.21-2.56,2.42-5.12,3.63-7.68l-5.48-2.31c-.85,4.36-2.91,8.21-6.13,11.28l5.01,1.32c-.31-1.76-.05-3.47.52-5.15h-5.79c.9,3.36.73,6.73-.41,10.01l5.79,1.6c.84-3.36,2.14-6.47,3.96-9.42l-5.18-3.03c-1.74,3.91-3.75,7.69-6.04,11.31l5.18,3.03c1.64-2.82,3.29-5.64,4.93-8.45l-5.59-1.51c.02.37.04.73,0,1.1-.02.22-.01.21.01-.04-.03.15-.06.3-.1.45-.25.83-.23.84-.53,1.42-.59,1.12-1.47,2.32-2.14,3.19-1.76,2.29-3.74,4.79-4.65,7.75-.85,2.78,3.03,5.2,5.01,2.92s4.15-4.77,6.22-7.16l-4.71-3.64c-3.86,8-7.72,16.01-11.58,24.01-.7,1.46-.4,3.24,1.08,4.1s3.27.32,4.1-1.08c.66-1.1,1.32-2.21,1.98-3.31l-5.48-2.31c-.5,1.78-1.28,3.51-2.43,4.98l5.01,2.92c1.41-3.46,3.43-6.72,5.87-9.54l-5.01-2.92c-1.62,4.36-3.96,8.41-6.8,12.09l5.18,3.03c.66-.87,1.32-1.74,1.98-2.62l-5.48-2.31c-.37,1.31-.74,2.61-1.12,3.92-1.06,3.72,4.73,5.31,5.79,1.6.37-1.31.74-2.61,1.12-3.92.41-1.42-.38-2.99-1.74-3.54-1.49-.6-2.82,0-3.75,1.23-.66.87-1.32,1.74-1.98,2.62-.98,1.29-.21,3.35,1.08,4.1,1.55.91,3.11.21,4.1-1.08,3.17-4.11,5.59-8.66,7.4-13.52,1.04-2.78-3.1-5.14-5.01-2.92-3.16,3.67-5.59,7.71-7.41,12.19-1.11,2.72,3.2,5.23,5.01,2.92s3.17-4.79,3.97-7.63c.93-3.29-3.74-5.23-5.48-2.31-.66,1.1-1.32,2.21-1.98,3.31l5.18,3.03c3.86-8,7.72-16.01,11.58-24.01.65-1.34.48-2.93-.77-3.87-1.12-.84-2.94-.91-3.94.23-2.07,2.39-4.15,4.77-6.22,7.16l5.01,2.92c.34-1.11.95-2.15,1.79-3.33.93-1.32,1.7-2.21,2.74-3.6,1.84-2.48,3.31-5.34,3.1-8.52-.19-2.87-4.02-4.21-5.59-1.51s-3.29,5.64-4.93,8.45c-1.96,3.35,3.12,6.28,5.18,3.03,2.29-3.62,4.3-7.39,6.04-11.31.66-1.48.43-3.22-1.08-4.1-1.43-.84-3.25-.31-4.1,1.08-2.06,3.35-3.61,7.03-4.56,10.85s4.53,5.22,5.79,1.6c1.47-4.25,1.57-8.87.41-13.2-.8-2.99-4.86-2.71-5.79,0s-1.02,5.52-.52,8.34c.41,2.32,3.51,2.76,5.01,1.32,3.9-3.72,6.64-8.63,7.68-13.93.29-1.46-.29-2.96-1.74-3.54-1.28-.52-3.1-.14-3.75,1.23-1.21,2.56-2.42,5.12-3.63,7.68l5.48,2.31c1.48-3.73,2.34-7.59,2.78-11.57.16-1.46-1.26-2.79-2.6-2.95-1.59-.19-2.72.72-3.29,2.15-1.36,3.41-2.73,6.81-4.09,10.22-.55,1.37.49,3.04,1.74,3.54,1.38.56,2.96.08,3.75-1.23,3.38-5.63,6.74-11.27,10.07-16.93,1.96-3.33-3.22-6.36-5.18-3.03h0Z"/><path class="cls-4" d="m194.51,221.34c-1.9,4.52-3.79,9.04-5.69,13.57-.95,2.26-1.9,4.52-2.84,6.78s-1.77,4.45-1.83,6.93c-.07,2.82,4.34,4.3,5.59,1.51,2.97-6.62,5.54-13.41,7.62-20.36.53-1.75-.95-3.95-2.89-3.8-2.48.2-3.46,1.85-4.26,3.98-.71,1.91-1.42,3.82-2.14,5.73-1.42,3.82-2.85,7.63-4.27,11.45l5.01-1.32c.04.16.09.32.15.48.08.36.12.41.11.14.04-.02.03-.13.09-.37.21-.8.44-1.59.66-2.38.44-1.59.88-3.18,1.31-4.77.88-3.18,1.75-6.36,2.63-9.53.39-1.43-.37-2.99-1.74-3.54-1.27-.51-3.11-.15-3.75,1.23-2.76,5.95-5.05,12.09-6.78,18.42l5.79,1.6c1.48-6.69,3.62-13.66,3.17-20.58-.1-1.48-1.07-2.76-2.6-2.95-1.43-.17-2.93.67-3.29,2.15-1.57,6.49-3.86,12.75-6.91,18.69l5.48,2.31c1-3.97,2.51-7.7,4.58-11.24.82-1.4.32-3.29-1.08-4.1-1.49-.87-3.18-.26-4.1,1.08-3.28,4.74-6.11,9.76-8.48,15.01l5.48,2.31c.82-4.74,1.62-9.73,4.05-13.96s7.15-6.57,9.95-10.65l-5.48-2.31c-2.81,7.95-6.3,15.63-10.39,23.01-1.88,3.38,3.3,6.41,5.18,3.03,4.34-7.82,8.01-16.01,11-24.44.49-1.39-.44-3.02-1.74-3.54-1.44-.58-2.88-.04-3.75,1.23-1.31,1.92-3.35,3.31-5.09,4.82-2.03,1.75-3.76,3.83-5.05,6.18-2.55,4.64-3.57,9.88-4.46,15.05-.25,1.47.27,2.95,1.74,3.54,1.26.51,3.13.15,3.75-1.23,2.36-5.26,5.2-10.27,8.48-15.01l-5.18-3.03c-2.31,3.95-4.07,8.23-5.18,12.67-.8,3.2,3.88,5.43,5.48,2.31,3.28-6.39,5.83-13.14,7.52-20.13l-5.89-.8c.42,6.4-1.59,12.79-2.96,18.98-.83,3.75,4.76,5.34,5.79,1.6,1.59-5.82,3.63-11.51,6.17-16.98l-5.48-2.31c-1.05,3.81-2.1,7.63-3.15,11.44-.51,1.85-1.12,3.69-1.53,5.57s-.31,4.01,1.28,5.26c1.84,1.45,4.17.93,5.01-1.32,1.17-3.13,2.34-6.26,3.5-9.39.57-1.53,1.14-3.05,1.71-4.58.28-.76.57-1.53.85-2.29.14-.38.28-.77.43-1.15.35-.87.1.04-.36.27l-1.51.41.26-.02-2.89-3.8c-1.93,6.45-4.26,12.78-7.02,18.92l5.59,1.51c.05-2.17,1.17-4.27,1.99-6.24l2.65-6.33c1.83-4.37,3.67-8.74,5.5-13.12.63-1.49-.68-3.3-2.1-3.69-1.73-.48-3.06.59-3.69,2.1h0Z"/><path class="cls-4" d="m176,238.08c-2.46,4.86-4.36,9.98-5.58,15.29-.33,1.45.32,2.97,1.74,3.54s2.86.03,3.75-1.23c1.81-2.58,3.62-5.15,5.44-7.73l-5.18-3.03c-2.17,5.05-4.87,9.83-8.06,14.3l5.48,2.31c.87-3.49,2.84-6.49,4.83-9.53l-5.18-3.03c-1.87,2.92-3.75,5.85-5.62,8.77l5.48,2.31c1.3-3.9,3.54-7.62,6.41-10.65,1.12-1.17,1.17-3.08,0-4.24s-3.12-1.18-4.24,0c-3.61,3.8-6.3,8.32-7.95,13.29-.47,1.4.42,3.01,1.74,3.54,1.41.57,2.92.06,3.75-1.23,1.87-2.92,3.75-5.85,5.62-8.77.87-1.36.28-3.31-1.08-4.1-1.46-.85-3.22-.28-4.1,1.08-2.24,3.43-4.43,6.95-5.43,10.97-.36,1.44.34,2.98,1.74,3.54,1.47.59,2.85.02,3.75-1.23,3.2-4.46,5.9-9.25,8.06-14.3.64-1.49.44-3.22-1.08-4.1s-3.17-.25-4.1,1.08c-1.81,2.58-3.62,5.15-5.44,7.73l5.48,2.31c1.11-4.81,2.75-9.45,4.98-13.85.73-1.44.38-3.25-1.08-4.1-1.34-.78-3.37-.37-4.1,1.08h0Z"/><path class="cls-4" d="m201.41,222.16c.09.07.18.15.25.25l-.47-.61c.08.1.14.21.19.32l-.3-.72c.06.13.09.27.11.41l-.11-.8c.02.13.02.27,0,.4l.11-.8c-.02.12-.05.24-.1.36l.3-.72s-.02.05-.03.07c-.22.34-.34.72-.36,1.12-.09.4-.07.8.05,1.2.09.39.27.73.54,1.02.21.33.49.58.84.77l.72.3c.53.14,1.06.14,1.6,0l.72-.3c.45-.27.81-.63,1.08-1.08.13-.27.24-.55.35-.82.02-.04.03-.09.04-.13.09-.32.12-.71.15-1.02,0-.09.01-.18,0-.28-.02-.3-.07-.6-.12-.9,0-.05-.01-.09-.02-.14-.02-.09-.05-.17-.08-.25-.12-.29-.24-.64-.41-.93-.02-.04-.05-.08-.08-.11-.17-.23-.34-.47-.53-.69-.06-.07-.13-.13-.2-.19-.27-.29-.59-.5-.97-.62-.36-.19-.74-.27-1.16-.26-.41-.02-.8.07-1.16.26-.37.12-.69.33-.97.62l-.47.61c-.27.47-.41.97-.41,1.51l.11.8c.14.51.4.95.77,1.32h0Z"/><path class="cls-4" d="m174.22,248.31c-.07.85.17-.45-.06.36-.07.23-.11.47-.18.7s-.15.46-.23.68c.2-.52-.15.31-.17.34-.49.97-1.09,1.89-1.69,2.79-1.34,1.98-2.61,3.9-3.47,6.15l5.79,1.6c.67-3.67,1.34-7.35,2.01-11.02.29-1.59-.44-3.23-2.1-3.69s-3.07.59-3.69,2.1c-2.39,5.78-4.62,11.63-6.67,17.54-.97,2.78,3.08,5.17,5.01,2.92,2.05-2.38,3.52-5.1,5.1-7.8.38-.65.77-1.3,1.19-1.93.15-.23.31-.47.47-.69.11-.15.22-.3.33-.45-.19.24-.18.22.04-.05.47-.56.96-1.1,1.5-1.59.13-.12.27-.24.41-.36-.25.18-.24.17.05-.03.31-.21.62-.41.94-.6l-4.41-3.39c-1.18,2.8-2.61,5.72-4.08,8.47-.76,1.43-.36,3.27,1.08,4.1,1.52.89,3.14.23,4.1-1.08,3.39-4.63,7.12-9.21,11.76-12.85l-4.71-3.64c-1.69,3.9-3.98,7.77-6.57,10.92l4.71,3.64c2.24-3.34,4.48-6.68,6.72-10.02l-5.48-2.31c-1.52,3.77-3.04,7.55-4.57,11.32-.49,1.21.33,2.77,1.38,3.39s2.83.56,3.64-.47c2.77-3.52,4.85-7.43,6.04-11.77.39-1.43-.37-2.99-1.74-3.54-1.27-.51-3.12-.15-3.75,1.23-1.67,3.67-3.01,7.46-4.32,11.27l5.79,1.6c1.18-3.57,2.53-7.08,4.08-10.5l-5.48-2.31c-.95,4.74-2.59,8.96-5.08,13.05l5.59,1.51c0-.16.06-1,.04-.84-.03.2.12-.55.15-.67.09-.35.2-.7.33-1.04-.17.44.19-.39.21-.42.14-.28.3-.55.47-.81.01-.02.56-.75.27-.39.2-.24.41-.47.63-.69.09-.09.89-.74.59-.53l-4.51-2.59c.03,1-.65,2.29-1.09,3.36-.51,1.24-1.02,2.48-1.53,3.72s.33,2.78,1.38,3.39c1.24.72,2.58.37,3.64-.47,2.17-1.74,3.99-3.89,5.41-6.28l-5.59-1.51c.04-.31-.03.11-.05.19-.05.22-.1.44-.15.65-.1.39-.31,1.01-.4,1.22-.18.42-.93,1.64-1.12,1.88l5.01,2.92c.55-2.9,1.12-5.79,1.73-8.67.33-1.58-.46-3.24-2.1-3.69s-3.26.53-3.69,2.1c-.31,1.15-.75,2.73-1.11,3.56-.27.62-.61,1.25-1,1.8.2-.28-.29.34-.35.39-.4.41-.17.09.1.07.08,0-.29,0-.33-.01-.36-.06-.71-.17-1.07-.26-.74-.19-1.48-.37-2.22-.56-.7-.17-1.45-.45-2.16-.54-.99-.3-.58.5,1.25,2.39-.05.13-.11.26-.18.38-.05.11-.12.19-.23.24.16-.1.31-.19.47-.28l-4.51-2.59c.14,1.37.02,2.51-.53,3.62-.66,1.34-.47,2.94.77,3.87,1.18.88,2.87.85,3.94-.23,2.08-2.11,3.58-4.73,4.27-7.61.38-1.57-.5-3.25-2.1-3.69-1.73-.48-3.06.6-3.69,2.1-.89,2.11-1.78,4.23-2.67,6.34l5.89.8c-.03.25-.01.18.06-.19.06-.22.12-.43.2-.64-.07.21-.02.15.13-.19.11-.19.24-.38.37-.55.94-1.32.23-3.34-1.08-4.1-1.51-.88-3.16-.24-4.1,1.08s-1.4,2.93-1.59,4.59c-.16,1.46,1.26,2.79,2.6,2.95,1.61.19,2.69-.73,3.29-2.15.89-2.11,1.78-4.23,2.67-6.34l-5.79-1.6c-.49,2.01-1.33,3.54-2.73,4.96l4.71,3.64c1.02-2.07,1.57-4.33,1.34-6.65s-2.39-3.81-4.51-2.59c-1.2.69-2.35,1.64-2.75,3.02-.43,1.49-.13,3.09,1,4.2.97.95,2.4,1.15,3.66,1.46s2.43.65,3.66.91c1.54.32,3.02.32,4.45-.41,1.22-.62,2.14-1.69,2.9-2.8,1.39-2.02,2.08-4.46,2.71-6.8l-5.79-1.6c-.6,2.89-1.18,5.78-1.73,8.67-.25,1.32.17,2.68,1.38,3.39,1.07.62,2.8.55,3.64-.47,1.99-2.43,3.09-5.07,3.48-8.18.16-1.28-1.05-2.58-2.2-2.89-1.29-.35-2.71.24-3.39,1.38-1.19,2-2.56,3.54-4.47,5.07l5.01,2.92c.56-1.36,1.12-2.72,1.68-4.07.62-1.5,1.21-2.94,1.16-4.6-.07-2.08-2.57-4-4.51-2.59-3.46,2.5-5.58,6.26-5.66,10.57-.06,3.04,4.08,4,5.59,1.51,2.71-4.45,4.66-9.37,5.69-14.48.29-1.46-.29-2.96-1.74-3.54-1.27-.51-3.12-.15-3.75,1.23-1.77,3.89-3.35,7.87-4.68,11.93-.51,1.54.59,3.28,2.1,3.69,1.65.45,3.16-.56,3.69-2.1,1.14-3.31,2.26-6.64,3.72-9.84l-5.48-2.31c-.9,3.27-2.46,6.53-4.5,9.12l5.01,2.92c1.52-3.77,3.04-7.55,4.57-11.32.55-1.37-.49-3.04-1.74-3.54-1.43-.58-2.89-.05-3.75,1.23-2.24,3.34-4.48,6.68-6.72,10.02-.82,1.23-.35,3.03.77,3.87s2.98.94,3.94-.23c3.04-3.7,5.6-7.73,7.51-12.13.59-1.37.52-2.91-.77-3.87s-2.73-.72-3.94.23c-5.01,3.93-8.96,8.96-12.7,14.06l5.18,3.03c1.73-3.23,3.27-6.53,4.69-9.91.45-1.07-.23-2.52-1.08-3.15-.96-.72-2.27-.86-3.33-.23-2.88,1.69-4.93,4.31-6.64,7.13-.79,1.31-1.52,2.66-2.3,3.97-.39.66-.79,1.31-1.22,1.94-.21.31-.43.62-.66.92.34-.45-.35.41-.42.49l5.01,2.92c2.05-5.91,4.27-11.76,6.67-17.54l-5.79-1.6c-.67,3.67-1.34,7.35-2.01,11.02-.29,1.59.44,3.23,2.1,3.69s3.11-.57,3.69-2.1c.33-.86-.26.45.16-.38.14-.27.27-.53.41-.79.27-.48.56-.95.85-1.41.63-.97,1.3-1.91,1.94-2.88,1.43-2.2,2.43-4.51,2.66-7.14.14-1.62-1.48-3-3-3-1.74,0-2.86,1.38-3,3h0Z"/><path class="cls-4" d="m163.94,273.51c1.95-.17,3.9-.35,5.85-.54l-.8-5.89c-1.81.64-3.8,1.16-5.63,1.36l.8,5.89c2.49-1.04,4.85-1.38,7.53-1.07,1.61.19,3-1.51,3-3,0-1.79-1.39-2.79-3-3s-3.38-.06-5.02.36c-1.14.29-2.01,1.35-2.15,2.49-.13,1.07.34,2.52,1.43,2.99,2.33.99,4.74,1.55,7.29,1.28l-.8-5.89c-.89.17-1.76.25-2.71.27v6c3.72-.47,7.44-.95,11.16-1.42l-1.51-5.59c-.67.32-1.33.43-2.07.45-1.62.03-3,1.35-3,3,0,1.8,1.39,2.78,3,3,2.8.37,5.71.04,8.37-.91,2.11-.76,2.97-3.3,1.32-5.01-.98-1.02-2.11-1.91-3.32-2.63l-2.31,5.48c.7.28,1.41.56,2.11.84l-1.32-5.01c-.31.38-.62.76-.93,1.14-.89,1.09-1.14,2.36-.47,3.64.5.96,1.48,1.75,2.56,1.93,1.6.27,3.23-.42,3.69-2.1.4-1.44-.49-3.42-2.1-3.69l1.03.82-.47,3.64c.31-.38.62-.76.93-1.14,1.52-1.85.87-4.14-1.32-5.01-.7-.28-1.41-.56-2.11-.84-1.37-.55-3.04.49-3.54,1.74-.56,1.38-.08,2.96,1.23,3.75.9.54,1.37.92,2.11,1.69l1.32-5.01c-2.27.82-4.36,1.02-6.77.7v6c1.82-.04,3.46-.48,5.09-1.27,1.18-.57,1.71-2.18,1.38-3.39s-1.61-2.37-2.89-2.2c-3.72.47-7.44.95-11.16,1.42-1.61.21-3,1.23-3,3,0,1.6,1.37,3.04,3,3,1.45-.04,2.89-.21,4.31-.49,3.28-.64,2.58-6.24-.8-5.89-1.55.16-2.96.09-4.26-.46l-.72,5.48c1.1-.28,2.22-.3,3.43-.14v-6c-3.08-.36-6.27.09-9.13,1.29-1.38.58-2.39,1.69-2.15,3.29.2,1.34,1.44,2.77,2.95,2.6,2.47-.27,4.87-.75,7.22-1.58,1.4-.5,2.38-1.76,2.15-3.29-.2-1.35-1.44-2.74-2.95-2.6-1.95.18-3.9.36-5.85.54-1.61.14-3,1.28-3,3,0,1.51,1.38,3.15,3,3h0Z"/><path class="cls-4" d="m185.15,269.03c.05.14.08.28.1.43l-.11-.8c.03.2.02.41,0,.61l.11-.8c-.03.2-.08.4-.16.59l.3-.72c-.07.17-.16.33-.27.47l.47-.61c-.05.06-.1.12-.16.18-.29.27-.5.59-.62.97-.19.36-.27.74-.26,1.16-.02.41.07.8.26,1.16.12.37.33.69.62.97l.61.47c.47.27.97.41,1.51.41l.8-.11c.51-.14.95-.4,1.32-.77.24-.26.45-.55.66-.83.06-.09.12-.18.17-.28.16-.32.3-.65.42-.98.04-.1.07-.21.09-.31.01-.05.02-.1.03-.15.05-.3.09-.61.12-.92.01-.11.01-.22,0-.32,0-.06,0-.11-.01-.17-.04-.3-.07-.61-.13-.92-.02-.11-.05-.22-.09-.33-.09-.39-.27-.73-.54-1.02-.21-.33-.49-.58-.84-.77-.34-.22-.72-.34-1.12-.36-.4-.09-.8-.07-1.2.05l-.72.3c-.45.27-.81.63-1.08,1.08l-.3.72c-.14.53-.14,1.06,0,1.6h0Z"/><path class="cls-4" d="m186.3,266.11c-.29.49-.61.96-.96,1.42l.47-.61c-.7.9-1.52,1.72-2.42,2.42l.61-.47c-.19.15-.38.29-.58.42-.35.19-.63.45-.84.77-.27.29-.44.63-.54,1.02-.13.4-.14.8-.05,1.2.02.4.14.77.36,1.12.41.64,1.03,1.2,1.79,1.38s1.66.16,2.31-.3c1.01-.7,1.98-1.48,2.81-2.39s1.59-1.9,2.22-2.95c.4-.67.51-1.57.3-2.31-.19-.7-.73-1.45-1.38-1.79-.7-.37-1.54-.55-2.31-.3s-1.38.69-1.79,1.38h0Z"/><path class="cls-4" d="m186.21,267.65c0,.06-.01.12-.02.18l.11-.8c-.08.52-.22,1.03-.42,1.52l.3-.72c-.21.49-.47.95-.79,1.37l.47-.61c-.2.26-.42.5-.65.72-.29.27-.5.59-.62.97-.19.36-.27.74-.26,1.16-.02.41.07.8.26,1.16.12.37.33.69.62.97.57.52,1.32.91,2.12.88s1.53-.31,2.12-.88c.44-.42.81-.91,1.18-1.4.22-.3.42-.62.59-.96.27-.54.51-1.1.68-1.68.18-.61.25-1.24.32-1.87.02-.41-.07-.8-.26-1.16-.12-.37-.33-.69-.62-.97-.27-.29-.59-.5-.97-.62-.36-.19-.74-.27-1.16-.26-.78.03-1.58.29-2.12.88l-.47.61c-.27.47-.41.97-.41,1.51h0Z"/><path class="cls-4" d="m165.58,266.29c-.06.37-.12.74-.14,1.12,0,.13,0,.25,0,.38.02.37.08.75.14,1.12.02.13.05.25.09.37.14.51.4.95.77,1.32.27.29.59.5.97.62.36.19.74.27,1.16.26.54,0,1.05-.14,1.51-.41.05-.03.09-.06.13-.09.23-.17.47-.35.7-.54.08-.06.15-.13.21-.21.12-.13.22-.28.33-.42s.22-.27.31-.41c.06-.09.11-.18.16-.27.13-.27.24-.55.35-.82.02-.05.04-.09.05-.14.03-.1.06-.2.08-.3.03-.18.04-.36.11-.53l-.3.72s.04-.07.06-.11l-.47.61s.03-.04.05-.05l-.61.47s.04-.03.06-.04l-.72.3s.04-.02.07-.02l-.8.11s.03,0,.04,0l-.8-.11s.02,0,.03,0l-.72-.3s.02,0,.02.01l-.61-.47s.01.01.02.02l-.47-.61s.02.03.03.05l-.3-.72s.01.05.02.07l-.11-.8s0,.06,0,.09l.11-.8s0,.03-.01.05l.3-.72s0,.02-.02.03l.47-.61s0,0-.01.01l.61-.47s0,0-.02,0l.72-.3h0c.27-.03.53-.07.8-.11h0c.27.04.53.07.8.11,0,0-.01,0-.02,0l.72.3s-.01,0-.02-.01l.61.47s-.02-.01-.02-.02c-.27-.29-.59-.5-.97-.62-.36-.19-.74-.27-1.16-.26-.41-.02-.8.07-1.16.26-.37.12-.69.33-.97.62l-.47.61c-.27.47-.41.97-.41,1.51l.11.8c.14.51.4.95.77,1.32.19.19.4.37.64.5.1.06.62.28.74.31.76.24,1.66.09,2.35-.31.42-.25.88-.68,1.11-1.11.06-.11.27-.62.31-.74.08-.23.16-1.45.12-.84.01-.17-.03-.31-.05-.49-.02-.12-.03-.3-.06-.44,0,0,0-.02,0-.03l-.3-.72s-.02-.03-.03-.05l-.47-.61s-.01-.01-.02-.02c-.38-.4-.56-.45-.99-.63-.46-.19-.57-.28-1.18-.27-.87.01-1.7.34-2.32.96-.43.43-.75,1-.9,1.59-.03.13-.04.27-.07.4-.03.15-.08.3-.13.44l.3-.72c-.08.17-.17.33-.28.48l.47-.61c-.11.14-.23.26-.37.37l.61-.47c-.05.04-.11.08-.16.11l4.41,1.79c-.05-.15-.08-.31-.1-.47l.11.8c-.03-.27-.04-.53,0-.8l-.11.8s.01-.08.02-.12c.13-.4.14-.8.05-1.2-.02-.4-.14-.77-.36-1.12-.19-.35-.45-.63-.77-.84-.29-.27-.63-.44-1.02-.54l-.8-.11c-.54,0-1.05.14-1.51.41l-.61.47c-.37.37-.63.82-.77,1.32h0Z"/><path class="cls-4" d="m166.18,275.17c.95-.1,1.89-.2,2.84-.31.41.02.8-.07,1.16-.26.37-.12.69-.33.97-.62.29-.27.5-.59.62-.97.19-.36.27-.74.26-1.16l-.11-.8c-.14-.51-.4-.95-.77-1.32l-.61-.47c-.47-.27-.97-.41-1.51-.41-.95.1-1.89.2-2.84.31-.41-.02-.8.07-1.16.26-.37.12-.69.33-.97.62-.29.27-.5.59-.62.97-.19.36-.27.74-.26,1.16l.11.8c.14.51.4.95.77,1.32l.61.47c.47.27.97.41,1.51.41h0Z"/><path class="cls-4" d="m149.95,291.88c-.2.58-.41,1.15-.65,1.72l.3-.72c-.83,1.95-1.9,3.79-3.19,5.48l.47-.61c-.26.34-.53.66-.8.99-.52.62-.88,1.29-.88,2.12,0,.74.33,1.61.88,2.12s1.32.91,2.12.88c.76-.03,1.61-.28,2.12-.88,2.4-2.82,4.22-5.99,5.41-9.51.5-1.49-.58-3.34-2.1-3.69-1.66-.38-3.15.5-3.69,2.1h0Z"/><path class="cls-4" d="m151.34,288.92c-3.44,3.43-5.35,8.54-4.73,13.39.11.83.26,1.51.88,2.12.52.52,1.37.91,2.12.88s1.58-.29,2.12-.88c.5-.54.98-1.35.88-2.12-.12-.96-.15-1.93-.06-2.9.01-.12.03-.23.04-.35.04-.38-.12.72-.02.19.04-.23.08-.46.13-.69.11-.49.24-.97.4-1.44.07-.22.16-.44.24-.66.12-.36-.26.57-.1.23.05-.11.1-.21.15-.32.21-.45.45-.89.71-1.32.12-.2.25-.4.38-.59.07-.1.14-.19.2-.29.23-.33-.06.11-.15.19.39-.32.7-.82,1.06-1.18,1.11-1.11,1.19-3.15,0-4.24s-3.06-1.18-4.24,0h0Z"/><path class="cls-4" d="m152.31,296.19c3.14,1.13,6.28,2.27,9.41,3.4,1.32.48,2.58.96,3.8,1.64,1.63.92,3.2,1.49,5.09,1.03,3-.73,2.7-4.91,0-5.79s-4.93-2.43-7.53-3.37c-1.13-.41-2.3-.59-3.48-.79-.57-.1-1.15-.2-1.7-.39-.22-.08-.03.06-.35-.16.32.22-.37-.39-.38-.4l-1.32,5.01c1.75-.42,2.97.36,4.47,1.2,1.95,1.1,4.07,1.76,6.24,2.3,4.51,1.12,9.18,1.63,13.82,1.54,3.86-.07,3.87-6.07,0-6-4.62.09-9.16-.45-13.61-1.69-.89-.25-1.8-.5-2.64-.9-.93-.45-1.79-1.05-2.73-1.5-2.28-1.08-4.69-1.31-7.14-.73s-2.71,3.38-1.32,5.01c2.02,2.38,5.03,2.24,7.77,3.04,2.9.84,5.42,2.69,8.31,3.62v-5.79c.33-.08.58.26.25-.03-.19-.16-.5-.27-.72-.4-.58-.33-1.17-.63-1.78-.9-1.43-.63-2.9-1.15-4.37-1.68-2.83-1.02-5.66-2.05-8.5-3.07-1.52-.55-3.28.62-3.69,2.1-.46,1.67.57,3.14,2.1,3.69h0Z"/><path class="cls-4" d="m179.76,296.29c-2.1,2.26-4.21,4.52-6.31,6.77-.54.58-.88,1.32-.88,2.12,0,.74.33,1.61.88,2.12s1.32.91,2.12.88,1.57-.29,2.12-.88c2.1-2.26,4.21-4.52,6.31-6.77.54-.58.88-1.32.88-2.12,0-.74-.33-1.61-.88-2.12s-1.32-.91-2.12-.88-1.57.29-2.12.88h0Z"/><path class="cls-4" d="m180.59,296.33c-1.79,1.3-3.44,2.76-4.84,4.48-.29.27-.5.59-.62.97-.19.36-.27.74-.26,1.16-.02.41.07.8.26,1.16.12.37.33.69.62.97.57.52,1.32.91,2.12.88.75-.03,1.63-.27,2.12-.88,1.09-1.34,2.33-2.55,3.69-3.61l-.61.47c.18-.14.36-.27.54-.4.35-.19.63-.45.84-.77.27-.29.44-.63.54-1.02.13-.4.14-.8.05-1.2-.02-.4-.14-.77-.36-1.12-.41-.64-1.03-1.2-1.79-1.38s-1.67-.16-2.31.3h0Z"/><path class="cls-4" d="m178.85,298.36v.09c.02-.27.06-.53.1-.8-.12.83-.34,1.64-.66,2.41l.3-.72c-.33.77-.75,1.5-1.26,2.16l.47-.61c-.2.26-.41.51-.64.75-.54.57-.88,1.33-.88,2.12,0,.74.33,1.61.88,2.12s1.32.91,2.12.88,1.57-.29,2.12-.88c.87-.93,1.66-1.99,2.2-3.15.32-.68.62-1.38.83-2.1s.32-1.51.42-2.29c.09-.7-.4-1.65-.88-2.12-.52-.52-1.37-.91-2.12-.88s-1.58.29-2.12.88l-.47.61c-.27.47-.41.97-.41,1.51h0Z"/><path class="cls-4" d="m172.29,301c-.28,1.74-.68,3.47-1.21,5.15-.26.83-.55,1.64-.87,2.45-.09.22-.44.78-.02.06-.11.18-.17.4-.26.6-.19.42-.39.84-.6,1.26-.36.73-.52,1.51-.3,2.31.19.7.73,1.45,1.38,1.79,1.35.72,3.36.43,4.1-1.08,1.71-3.46,2.96-7.13,3.56-10.95.13-.82.13-1.57-.3-2.31-.36-.62-1.08-1.22-1.79-1.38-.77-.17-1.63-.14-2.31.3-.61.4-1.26,1.04-1.38,1.79h0Z"/><path class="cls-4" d="m169.43,300.38c-.4,2.53-1.11,5-2.09,7.37l.3-.72c-.21.5-.44,1.01-.68,1.5-.11.22-.23.43-.33.65-.23.5.41-.41.21-.22s.67-.44.28-.25l.72-.3-.1.03.8-.11c-.06.01-.11.02-.17,0l1.51.41.49.37.77,1.32-.03-.09c-.26-.74-.68-1.38-1.38-1.79-.64-.38-1.59-.54-2.31-.3-1.46.47-2.65,2.11-2.1,3.69.49,1.4,1.65,2.45,3.21,2.39,1.19-.05,2.19-.64,2.9-1.57.86-1.11,1.37-2.65,1.89-3.94.88-2.21,1.51-4.51,1.89-6.86.13-.82.13-1.57-.3-2.31-.36-.62-1.08-1.22-1.79-1.38-.77-.17-1.63-.14-2.31.3-.61.4-1.26,1.04-1.38,1.79h0Z"/><path class="cls-4" d="m154.77,300.97c-.89.42-1.09.55-.61.4-.46.05-.51.08-.17.08-.49-.03-.3-.04.08.05.6.16,1.19.36,1.79.52,1.19.33,2.39.61,3.6.84,2.68.52,5.41.83,8.14.93,1.57.06,3.07-1.42,3-3-.07-1.67-1.32-2.94-3-3-1.42-.05-2.84-.16-4.25-.33-.36-.05-.38-.05-.05,0-.19-.03-.38-.05-.56-.08-.37-.06-.75-.12-1.12-.19-.65-.12-1.3-.25-1.95-.4-1.35-.3-2.66-.73-3.99-1.08-1.91-.5-3.61-.27-5.14,1.01-1.21,1.01-1.12,3.22,0,4.24,1.29,1.18,2.95,1.07,4.24,0h0Z"/><path class="cls-4" d="m151.97,298.8h3.13c.41.02.8-.07,1.16-.26.37-.12.69-.33.97-.62.29-.27.5-.59.62-.97.19-.36.27-.74.26-1.16l-.11-.8c-.14-.51-.4-.95-.77-1.32-.59-.54-1.31-.88-2.12-.88h-3.13c-.41-.02-.8.07-1.16.26-.37.12-.69.33-.97.62-.29.27-.5.59-.62.97-.19.36-.27.74-.26,1.16l.11.8c.14.51.4.95.77,1.32.59.54,1.31.88,2.12.88h0Z"/><path class="cls-4" d="m152.79,294.86c1.96,1,3.93,2,5.89,3,.72.37,1.52.52,2.31.3.7-.19,1.45-.73,1.79-1.38.37-.7.55-1.54.3-2.31-.23-.72-.68-1.44-1.38-1.79-1.96-1-3.93-2-5.89-3-.72-.37-1.52-.52-2.31-.3-.7.19-1.45.73-1.79,1.38-.37.7-.55,1.54-.3,2.31.23.72.68,1.44,1.38,1.79h0Z"/><path class="cls-4" d="m152.01,301.58c5.61,1.58,11.31,2.8,17.07,3.66,1.55.23,3.3-.38,3.69-2.1.32-1.42-.44-3.44-2.1-3.69-5.76-.85-11.46-2.07-17.07-3.66-1.51-.43-3.33.52-3.69,2.1s.48,3.23,2.1,3.69h0Z"/><path class="cls-4" d="m163.94,301.47c.11.16.22.31.32.48.37.65-.03,0,.02-.02,0,0,.14.48.16.55.19.56-.03-.7.01.06,0,.19,0,.38,0,.58-.02.24,0,.13.05-.32-.02.09-.04.19-.06.28-.02.09-.05.19-.07.28-.09.24-.08.24.02,0,.11-.24.11-.24,0,0-.06.11-.12.23-.19.33l5.59,1.51c.05-.46.05.06-.03.13.05-.05.08-.45.1-.55.07-.33.15-.65.25-.97.03-.1.22-.83.3-.84-.09.01-.26.56.02,0,.08-.17.17-.33.26-.49l-5.59-1.51c-.01.53-.02,1.09-.11,1.61.15-.84-.05.19-.08.34-.05.26-.12.53-.19.79-.14.52-.33,1.02-.5,1.54-.08.21-.05.14.08-.18-.06.14-.13.28-.19.42-.05.11-.11.21-.17.31.29-.42.66-.72,1.12-.91h1.6c-.5-.09-.26.06.71.46-.09-.09-.17-.18-.25-.28-.2-.25-.17-.2.1.15-.08-.1-.15-.21-.23-.32-.3-.43-.56-.89-.81-1.35-.47-.87-.87-1.78-1.32-2.66-1.27-2.48-3.3-5.35-6.44-4.93-1.96.26-3.37,1.83-3.94,3.65-.41,1.3-.38,2.8-.49,4.15s-.22,2.58-.32,3.88c-.03.33-.06.67-.08,1-.04.78.2-.76-.02.08-.03.11-.06.21-.1.31.21-.46.24-.56.1-.29.42-.63,1.24-1,2.37-.84-.83-.12-1.56-.14-2.31.3-.62.36-1.22,1.08-1.38,1.79-.32,1.42.43,3.45,2.1,3.69,1.04.15,2.03.16,2.95-.42.68-.43,1.24-1.06,1.59-1.77.69-1.41.7-2.95.83-4.48.11-1.33.22-2.67.33-4,.03-.33.06-.67.08-1,.01-.15.03-.3.04-.45.02-.42-.12.57-.02.16.05-.2.05-.57.19-.72-.14.15-.2.45-.37.62.19-.18.18-.19-.01-.03-.14.13-.32.22-.52.25-.21.05-.43.03-.64,0-.09-.01-.82-.33-.51-.15.33.18-.42-.41-.18-.13.08.1.18.18.27.27s.17.2.26.29c.27.29-.33-.47-.11-.15.17.24.33.48.49.73.55.9.99,1.86,1.45,2.8s.95,1.88,1.57,2.73c.53.72,1.07,1.45,1.83,1.93,1.13.71,2.57.79,3.75.13,1.6-.89,2.28-2.91,2.77-4.56.46-1.54.69-3.18.72-4.78.03-1.26-.95-2.61-2.2-2.89s-2.72.18-3.39,1.38c-1.01,1.81-1.53,3.7-1.73,5.75-.12,1.25,1.01,2.62,2.2,2.89,1.31.3,2.69-.2,3.39-1.38,1.47-2.48,1.48-5.91-.26-8.27-.48-.65-.99-1.16-1.79-1.38-.72-.2-1.67-.11-2.31.3-1.25.8-2.07,2.75-1.08,4.1h0Z"/><path class="cls-4" d="m147.65,300.24c-1.19,1.7-1.45,3.85-1.46,5.88,0,.83.03,1.67,0,2.5,0,.21-.02.41-.03.62-.06.78.03.02.01.01.09.03-.33,1.27-.37,1.36l5.89.8c.29-2.58.15-5.12-.25-7.68-.18-1.15-1.45-2.01-2.49-2.15-1.24-.17-2.3.42-2.99,1.43-.86,1.25-1.66,2.53-2.43,3.84l5.59,1.51c.03-.3.05-.69,0-.16.02-.24.07-.48.12-.71.1-.51.22-1.02.36-1.53.13-.46.29-.92.46-1.38.04-.11.09-.23.13-.34-.13.31-.15.36-.07.16.12-.25.24-.51.36-.76l-4.71.61c.09.08.18.17.27.27.21.24.16.19-.13-.17.07.1.13.21.19.31.14.29.12.21-.07-.22-.02.17.18.53.22.71.03.12.05.24.07.37-.06-.48-.07-.56-.04-.23.01.46,0,.9-.01,1.36-.04.33-.02.26.04-.21-.02.13-.04.26-.07.39-.05.25-.11.51-.17.76-.67,2.55-1.81,4.92-1.71,7.63l5.59-1.51c-.28-.36-.53-.74-.75-1.15l-.1-.2c-.14-.3-.13-.28.03.09-.12-.15-.16-.47-.22-.65-.45-1.5-2.13-2.6-3.69-2.1s-2.58,2.08-2.1,3.69c.36,1.2.89,2.36,1.65,3.35s2.02,1.82,3.39,1.38c1.23-.4,2.25-1.54,2.2-2.89-.01-.31,0-.62.01-.94.03-.74-.1.4,0-.01.03-.15.06-.31.09-.46.14-.66.34-1.3.54-1.94.39-1.2.85-2.38,1.06-3.63.5-2.91.21-6.06-2.05-8.21-1.32-1.26-3.82-1.17-4.71.61-1.23,2.47-1.94,5-2.19,7.75-.12,1.25,1.01,2.62,2.2,2.89,1.3.3,2.7-.19,3.39-1.38.76-1.31,1.57-2.59,2.43-3.84l-5.48-.72c.05.35.05.34,0-.04.02.13.03.25.05.38.03.25.05.51.07.76.05.55.07,1.11.08,1.66.02,1.11-.05,2.22-.17,3.32-.17,1.48,1.27,2.77,2.6,2.95,1.56.21,2.76-.73,3.29-2.15.65-1.73.63-3.64.61-5.46,0-.41,0-.83,0-1.24,0-.2.02-.41.03-.61l.02-.2c.04-.33.02-.27-.03.21.06-.02.21-.91.25-1.04.22-.64-.15.22,0,0,.13-.19.23-.4.37-.59.9-1.29.28-3.39-1.08-4.1-1.54-.81-3.14-.3-4.1,1.08h0Z"/><path class="cls-4" d="m142.31,309.8c-.6,2.76-.61,5.51-.08,8.29.13.68.78,1.48,1.38,1.79s1.23.45,1.91.36c1.47-.2,2.59-1.44,2.6-2.95,0-.81.02-1.62.02-2.44,0-.76-.34-1.58-.88-2.12s-1.37-.91-2.12-.88c-1.64.07-2.98,1.32-3,3,0,.81-.02,1.62-.02,2.44l5.89-.8c-.06-.33-.12-.67-.16-1l.11.8c-.18-1.43-.18-2.88,0-4.31l-.11.8c.06-.46.14-.92.24-1.38.17-.79.11-1.6-.3-2.31-.36-.62-1.08-1.22-1.79-1.38-.77-.17-1.63-.14-2.31.3-.64.41-1.21,1.03-1.38,1.79h0Z"/><path class="cls-4" d="m141.56,311.97c.36,2.17.78,4.33,1.08,6.51l-.11-.8c0,.06,0,.11,0,.17l.11-.8-.03.08.77-1.32-.05.06,1.32-.77-.06.02.8-.11h-.07c.5.13,1.01.26,1.51.4l-.06-.03.61.47-.04-.05.77,1.32v-.05c-.11.77-.21,1.54-.31,2.31l.03-.05c.4-.66.51-1.57.3-2.31-.19-.7-.73-1.45-1.38-1.79-1.46-.77-3.23-.36-4.1,1.08s-.33,3.39,1.1,4.25c.68.41,1.66.58,2.44.34.69-.21,1.24-.6,1.67-1.16s.65-1.25.68-1.98c.01-.39-.09-.79-.16-1.17l-.21-1.27-.82-4.95c-.12-.7-.79-1.45-1.38-1.79-.64-.38-1.59-.54-2.31-.3s-1.43.68-1.79,1.38l-.3.72c-.14.53-.14,1.06,0,1.6h0Z"/><path class="cls-4" d="m141.68,315.25c1.22,1.8,2.34,3.66,3.34,5.58.49.95.96,1.91,1.4,2.88.1.23.2.46.3.68.13.3.11.26-.05-.13.06.13.11.26.16.39.22.53.42,1.06.62,1.59.28.75.67,1.38,1.38,1.79.64.38,1.59.54,2.31.3,1.43-.46,2.69-2.12,2.1-3.69-1.65-4.38-3.75-8.56-6.38-12.44-.88-1.3-2.68-1.99-4.1-1.08-1.29.83-2.02,2.72-1.08,4.1h0Z"/><path class="cls-4" d="m146.1,318.44c.32.62.62,1.24.9,1.88-.2-.47.22.56.26.66.1.28.21.56.3.84.47,1.36.83,2.75,1.1,4.16.06.34.12.68.18,1.02.05.36.06.39.02.09.02.15.04.29.05.44.08.69.13,1.38.15,2.07.06,1.44,0,2.87-.14,4.3-.16,1.57,1.49,3.07,3,3,1.76-.08,2.83-1.32,3-3,.65-6.37-.7-12.82-3.63-18.49-.72-1.4-2.79-1.92-4.1-1.08-1.42.92-1.85,2.61-1.08,4.1h0Z"/><path class="cls-4" d="m147.35,324.23c.74,6.3,1.08,12.64,1.01,18.99-.03,3.39,4.99,4.06,5.89.8.71-2.57,1.42-5.14,2.13-7.71h-5.79c.21.98.14,1.92-.11,2.88-.78,3.01,2.81,4.87,5.01,2.92,4.17-3.69,4.94-9.31,8.12-13.64,1.54-2.09,4.09-3.79,5.88-5.86,2.15-2.48,3.74-5.27,4.84-8.36.49-1.39-.45-3.02-1.74-3.54-1.46-.59-2.86-.03-3.75,1.23-3.51,5-6.66,10.23-9.44,15.67l5.48,2.31c.58-1.42,1.17-2.85,1.75-4.27,1.14-2.78-3.13-5.1-5.01-2.92-1.07,1.23-2.08,2.53-2.97,3.89-.83,1.26-1.43,2.61-2.18,3.9-.11.2-.22.26-.28.4-.83.77.08,1.05,2.74.85l-.12-.38c-.05-.55-.23-1.01-.22-1.58,0-1.26.42-2.34,1.12-3.39l-5.59-1.51c-.09,1.78-.37,3.48-.84,5.21l5.79,1.6c1.1-7.82,4.31-15.24,9.51-21.21l-5.01-1.32c.52,2.07.77,4.12.77,6.26,0,3.87,5.87,3.85,6,0,.05-1.57.1-3.14.16-4.71.1-3-4.13-4.05-5.59-1.51-2.34,4.06-4.67,8.11-7.01,12.17l5.48,2.31c1.07-3.01,2.14-6.01,3.2-9.02.54-1.53-.61-3.28-2.1-3.69-1.68-.46-3.12.57-3.69,2.1-1.44,3.88-3.28,7.58-5.44,11.1l5.59,1.51c-.53-5.41,0-10.73,1.65-15.91.49-1.54-.58-3.27-2.1-3.69-1.62-.44-3.2.55-3.69,2.1-1.79,5.63-2.44,11.62-1.86,17.5.13,1.33.84,2.52,2.2,2.89s2.69-.24,3.39-1.38c2.43-3.97,4.42-8.18,6.04-12.54l-5.79-1.6c-1.07,3.01-2.14,6.01-3.2,9.02-1.15,3.25,3.82,5.21,5.48,2.31,2.34-4.06,4.67-8.11,7.01-12.17l-5.59-1.51c-.05,1.57-.1,3.14-.16,4.71h6c0-2.64-.34-5.29-.99-7.85-.53-2.09-3.52-3.03-5.01-1.32-5.86,6.73-9.81,15-11.06,23.86-.23,1.6.39,3.22,2.1,3.69,1.56.43,3.26-.53,3.69-2.1.6-2.22.94-4.5,1.06-6.8.15-3.15-4.04-3.84-5.59-1.51-1.32,1.98-2.04,4.43-1.93,6.82.11,2.52.9,5.69,3.73,6.33s4.74-1.85,5.88-4.08c1.01-1.97,2.23-3.82,3.68-5.5l-5.01-2.92c-.58,1.42-1.17,2.85-1.75,4.27s.5,3.04,1.74,3.54c1.31.53,3.06.13,3.75-1.23,2.78-5.44,5.93-10.67,9.44-15.67l-5.48-2.31c-.85,2.4-2.22,4.63-3.98,6.47-2.05,2.14-4.38,3.88-6.12,6.31-2.8,3.91-3.61,9.27-7.18,12.43l5.01,2.92c.53-2.04.53-4.02.11-6.07-.62-2.97-5.03-2.74-5.79,0-.71,2.57-1.42,5.14-2.13,7.71l5.89.8c.06-6.35-.27-12.69-1.01-18.99-.19-1.61-1.24-3-3-3-1.48,0-3.19,1.38-3,3h0Z"/><path class="cls-4" d="m159.9,303.78c-.08.61.01-.03-.07.53-.05.33-.1.66-.15.99-.11.66-.23,1.32-.36,1.98-.26,1.31-.57,2.62-.93,3.91s-.76,2.57-1.21,3.83-.86,2.29-1.32,3.32l5.48,2.31c.92-3.14,1.85-6.28,2.77-9.43.98-3.33,1.83-6.78.87-10.22-.42-1.51-2.15-2.6-3.69-2.1s-2.55,2.07-2.1,3.69c.31,1.13.29,2.28.08,3.38-.28,1.46-.73,2.89-1.15,4.32-.86,2.92-1.71,5.84-2.57,8.75-.42,1.44.39,2.97,1.74,3.54,1.25.53,3.14.14,3.75-1.23,2.5-5.64,4.11-11.47,4.86-17.6.19-1.56-1.52-3.07-3-3-1.79.08-2.79,1.32-3,3h0Z"/><path class="cls-4" d="m165.41,300.9l.03-.14c.29-1.36-.2-2.63-1.38-3.39-2.94-1.89-5.65,1.38-6.64,3.83-.88,2.19-.91,4.59-1.39,6.88-1.16,5.56-3.39,10.93-5.26,16.28l5.89.8c0-6.6.01-13.2.02-19.8,0-3.86-5.99-3.87-6,0-.01,3.37-.23,6.73-.76,10.06h5.79c-.53-3.46-.78-6.95-.83-10.45s-5.01-4.12-5.89-.8c-.68,2.55-1.08,5.15-1.26,7.78-.19,2.85,4.41,4.27,5.59,1.51,1.77-4.14,2.81-8.41,3.01-12.92.06-1.47-1.19-2.78-2.6-2.95-1.55-.18-2.77.71-3.29,2.15-.76,2.1-1.53,4.21-2.29,6.31l-1.1,3.04-.51,1.4-.34.93c-.43.96-.08.72,1.05-.71h1.6l-.28-.08,1.32.77c-1.04-.82-1.85-2.14-2.69-3.17-1.02-1.26-3.18-1.06-4.24,0-1.24,1.24-1.03,2.98,0,4.24,1.14,1.4,2.31,3.47,4.15,3.98,2.61.73,4.09-1.32,4.88-3.44,1.44-3.88,2.83-7.79,4.24-11.68l-5.89-.8c-.14,3.38-.85,6.78-2.19,9.9l5.59,1.51c.14-2.11.5-4.15,1.04-6.19l-5.89-.8c.06,4.04.43,8.05,1.04,12.04.44,2.87,5.34,2.86,5.79,0,.61-3.86.96-7.75.97-11.66h-6c0,6.6-.01,13.2-.02,19.8,0,3.5,4.81,3.92,5.89.8,1.54-4.44,3.25-8.85,4.53-13.38.6-2.1.97-4.2,1.28-6.36.12-.83.25-1.65.49-2.45.15-.5.16-.55.35-.86.2-.3.24-.37.11-.2.54-.49.23-.44-.92.16l-1.51-.41.15.09-1.38-3.39-.03.14c-.33,1.58.46,3.24,2.1,3.69,1.49.41,3.36-.5,3.69-2.1h0Z"/><path class="cls-4" d="m141.31,309.17c-.1,1.62-.07,3.24.09,4.85-.02.41.07.8.26,1.16.12.37.33.69.62.97.52.52,1.37.91,2.12.88s1.58-.29,2.12-.88c.51-.55.95-1.34.88-2.12-.16-1.61-.19-3.23-.09-4.85.05-.74-.37-1.61-.88-2.12s-1.37-.91-2.12-.88-1.58.29-2.12.88l-.47.61c-.27.47-.41.97-.41,1.51h0Z"/><path class="cls-4" d="m140.79,309.03l-1.41,1.86,5.48.72c-.02-.1-.04-.2-.06-.3l.11.8c-.03-.27-.03-.53,0-.8l-.11.8c.04-.3.12-.59.24-.87l-.3.72c.11-.26.26-.51.43-.74l-.47.61c.18-.23.37-.43.6-.6l-.61.47c.19-.14.39-.26.6-.36.35-.19.63-.45.84-.77.27-.29.44-.63.54-1.02.13-.4.14-.8.05-1.2-.02-.4-.14-.77-.36-1.12-.41-.64-1.03-1.2-1.79-1.38l-.8-.11c-.54,0-1.05.14-1.51.41-.56.25-1.08.66-1.51,1.09-.31.31-.58.68-.83,1.03-.11.16-.21.32-.3.5-.19.39-.37.79-.5,1.21-.09.31-.13.62-.17.94s-.09.63-.08.95c.02.45.08.9.19,1.34l.3.72.47.61.61.47c.34.22.72.34,1.12.36.27.07.53.07.8,0,.27,0,.52-.07.76-.2.25-.07.47-.2.66-.39.33-.21.58-.49.77-.84l1.41-1.86c.22-.34.34-.72.36-1.12.09-.4.07-.8-.05-1.2-.09-.39-.27-.73-.54-1.02-.21-.33-.49-.58-.84-.77-.7-.37-1.54-.55-2.31-.3l-.72.3c-.45.27-.81.63-1.08,1.08h0Z"/><path class="cls-4" d="m150.39,302.34c.1,1.75.04,3.5-.19,5.24l.11-.8c-.2,1.5-.52,2.97-.96,4.42s.54,3.34,2.1,3.69,3.2-.49,3.69-2.1c1.02-3.36,1.46-6.95,1.26-10.46-.09-1.56-1.32-3.08-3-3-1.55.07-3.1,1.32-3,3h0Z"/><path class="cls-4" d="m153.58,303.08c-1.12,2.65-2.07,5.35-2.73,8.15-.18.78-.11,1.61.3,2.31.36.62,1.08,1.22,1.79,1.38.77.17,1.63.14,2.31-.3.64-.41,1.2-1.03,1.38-1.79.59-2.5,1.38-4.94,2.37-7.31l-.3.72.05-.13c.22-.34.34-.72.36-1.12.09-.4.07-.8-.05-1.2-.19-.7-.73-1.45-1.38-1.79-.7-.37-1.54-.55-2.31-.3-.69.22-1.5.68-1.79,1.38h0Z"/><path class="cls-4" d="m141.08,306.2l-1.95,4.28c-.22.34-.34.72-.36,1.12-.09.4-.07.8.05,1.2.19.7.73,1.45,1.38,1.79.7.37,1.54.55,2.31.3.7-.23,1.48-.68,1.79-1.38l1.95-4.28c.22-.34.34-.72.36-1.12.09-.4.07-.8-.05-1.2-.19-.7-.73-1.45-1.38-1.79-.7-.37-1.54-.55-2.31-.3-.7.23-1.48.68-1.79,1.38h0Z"/><path class="cls-4" d="m141.84,305.58c-.55.62-1.06,1.28-1.53,1.96-.33.49-.64,1-.9,1.52-.22.34-.34.72-.36,1.12-.09.4-.07.8.05,1.2.09.39.27.73.54,1.02.21.33.49.58.84.77l.72.3c.53.14,1.06.14,1.6,0l.72-.3c.45-.27.81-.63,1.08-1.08.38-.75.83-1.46,1.34-2.12l-.47.61c.2-.26.41-.51.62-.75.29-.27.5-.59.62-.97.19-.36.27-.74.26-1.16.02-.41-.07-.8-.26-1.16-.12-.37-.33-.69-.62-.97l-.61-.47c-.47-.27-.97-.41-1.51-.41l-.8.11c-.51.14-.95.4-1.32.77h0Z"/><path class="cls-4" d="m158.08,302.34c-.13.48-.27.96-.44,1.43-.08.23-.17.46-.26.69-.2.5.3-.61-.1.23s-.83,1.67-1.31,2.47-1.02,1.59-1.57,2.35c-.15.2-.3.4-.44.6-.08.11-.41.54-.17.23-.31.4-.62.79-.94,1.18-2.58,3.18-5.35,6.24-7.53,9.73-.86,1.37-.29,3.3,1.08,4.1,1.44.84,3.24.3,4.1-1.08.53-.85,1.1-1.68,1.7-2.49.15-.2.3-.41.45-.61.17-.23-.12.14.18-.23.32-.4.63-.79.95-1.19,1.28-1.57,2.61-3.11,3.87-4.7,2.67-3.37,5.08-6.93,6.21-11.14.41-1.51-.51-3.33-2.1-3.69s-3.25.47-3.69,2.1h0Z"/><path class="cls-4" d="m146.3,308.86c.11,3.22.9,6.34,1.67,9.46.36,1.45.7,2.9.91,4.37.03.21.03.21,0-.02.02.21.05.42.06.63.03.36.05.73.06,1.1s0,.73,0,1.1c0,.11-.1,1.23-.04.78-.21,1.55.37,3.3,2.1,3.69,1.41.32,3.46-.43,3.69-2.1.48-3.48.04-6.81-.76-10.21-.36-1.51-.76-3.02-1.1-4.54-.16-.73-.3-1.47-.42-2.2-.06-.37-.06-.42-.02-.15-.03-.21-.05-.42-.07-.63-.04-.42-.06-.85-.07-1.27-.05-1.57-1.34-3.07-3-3s-3.06,1.32-3,3h0Z"/><path class="cls-4" d="m159.38,270.14l-.86,1.62c-.22.34-.34.72-.36,1.12-.09.4-.07.8.05,1.2l.3.72c.19.35.45.63.77.84.19.19.41.31.66.39.36.19.74.27,1.16.26l.8-.11c.51-.14.95-.4,1.32-.77.48-.43.96-.86,1.44-1.29.29-.27.5-.59.62-.97.19-.36.27-.74.26-1.16.02-.41-.07-.8-.26-1.16-.12-.37-.33-.69-.62-.97l-.61-.47c-.47-.27-.97-.41-1.51-.41l-.8.11c-.51.14-.95.4-1.32.77-.48.43-.96.86-1.44,1.29l4.71,3.64.86-1.62c.22-.34.34-.72.36-1.12.09-.4.07-.8-.05-1.2-.09-.39-.27-.73-.54-1.02-.21-.33-.49-.58-.84-.77l-.72-.3c-.53-.14-1.06-.14-1.6,0l-.72.3c-.45.27-.81.63-1.08,1.08h0Z"/><path class="cls-4" d="m161.35,276.05h3.13c.41.02.8-.07,1.16-.26.37-.12.69-.33.97-.62.29-.27.5-.59.62-.97.19-.36.27-.74.26-1.16l-.11-.8c-.14-.51-.4-.95-.77-1.32-.59-.54-1.31-.88-2.12-.88h-3.13c-.41-.02-.8.07-1.16.26-.37.12-.69.33-.97.62-.29.27-.5.59-.62.97-.19.36-.27.74-.26,1.16l.11.8c.14.51.4.95.77,1.32.59.54,1.31.88,2.12.88h0Z"/><path class="cls-4" d="m234.62,268.98c-15.49.45-30.97.91-46.46,1.36-7.66.22-15.32.45-22.98.67-3.83.11-7.66.22-11.49.34-2.93.09-6.04.18-8.82,1.23s-5.09,3-5.72,5.95c-.59,2.77.64,5.33,2.4,7.4,3.81,4.45,9.9,6.71,15.35,8.28,14.18,4.08,28.6,7.28,43.17,9.59,16.44,2.61,33.05,4.12,49.7,4.42,3.86.07,3.86-5.93,0-6-27.82-.5-55.52-4.37-82.45-11.38-5.89-1.53-12.15-2.78-17.38-5.86-1.05-.62-2.07-1.31-2.82-1.96-.95-.84-1.38-1.29-1.84-2.11-.07-.12-.33-.86-.13-.23-.04-.14-.08-.34-.14-.48-.26-.57-.08.45-.02-.16.08-.74-.29.55,0-.16.06-.15.09-.32.14-.48-.24.63.12-.14.18-.23-.26.37.12-.12.21-.2.15-.13.14-.14-.03-.02.17-.12.34-.23.52-.34,1.75-1.03,4.47-1.16,6.8-1.24,3.62-.13,7.24-.21,10.86-.32,7.24-.21,14.49-.42,21.73-.64,16.4-.48,32.8-.96,49.21-1.44,3.85-.11,3.87-6.11,0-6h0Z"/></g></g></svg>